<?xml version="1.0" encoding="UTF-8"?>
<!DOCTYPE svg PUBLIC "-//W3C//DTD SVG 1.1//EN" "http://www.w3.org/Graphics/SVG/1.1/DTD/svg11.dtd">
<!-- Creator: CorelDRAW 2021.5 -->
<svg xmlns="http://www.w3.org/2000/svg" xml:space="preserve" width="59.3312mm" height="85.8354mm" version="1.1" style="shape-rendering:geometricPrecision; text-rendering:geometricPrecision; image-rendering:optimizeQuality; fill-rule:evenodd; clip-rule:evenodd"
viewBox="0 0 300.78 435.14"
 xmlns:xlink="http://www.w3.org/1999/xlink"
 xmlns:xodm="http://www.corel.com/coreldraw/odm/2003">
 <defs>
  <style type="text/css">
   <![CDATA[
    .fil0 {fill:#FBCC24;fill-rule:nonzero}
   ]]>
  </style>
 </defs>
 <g id="Layer_x0020_1">
  <metadata id="CorelCorpID_0Corel-Layer"/>
  <path class="fil0" d="M242.28 404.34c0,0 4.18,-25.08 -21.58,-55.72 25.07,-70.33 28.55,-134.38 28.55,-134.38 0,0 51.53,11.84 51.53,62.66 -0.01,87.04 -58.5,127.43 -58.5,127.43l0 0zm-142.03 -30.56c0,0 -34.51,-110.75 -34.51,-156.69 0,-20.67 2.33,-39.06 5.96,-55.75l157.22 0c3.65,16.71 6,35.11 6,55.77 0,45.24 -34.41,156.68 -34.41,156.68l-100.25 0zm50.01 -187.13c-17.68,0 -32.02,14.34 -32.02,32.03 0,17.68 14.34,32.03 32.02,32.03 17.68,0 32.03,-14.34 32.03,-32.03 0.01,-17.69 -14.34,-32.03 -32.03,-32.03zm-6.88 -143.04l0 -43.61 12.47 0 0 42.5c14.25,10.37 52.81,43.36 70.26,106.91l-151.61 0c16.86,-61.8 53.56,-94.43 68.88,-105.8l0 0zm-84.89 360.72c0,0 -58.49,-40.39 -58.49,-127.43 0,-50.82 51.53,-62.66 51.53,-62.66 0,0 3.48,64.05 28.54,134.38 -25.77,30.65 -21.58,55.72 -21.58,55.72l0 0zm112.98 6.43l-10.45 -10.45 -11.13 34.82 -13.24 -34.82 -9.05 18.09 -13.24 -32.73 71.71 0 -14.6 25.08 0 0z"/>
 </g>
</svg>
