<?xml version="1.0" encoding="UTF-8"?>
<!DOCTYPE svg PUBLIC "-//W3C//DTD SVG 1.1//EN" "http://www.w3.org/Graphics/SVG/1.1/DTD/svg11.dtd">
<!-- Creator: CorelDRAW 2021.5 -->
<svg xmlns="http://www.w3.org/2000/svg" xml:space="preserve" width="40.8732mm" height="85.8354mm" version="1.1" style="shape-rendering:geometricPrecision; text-rendering:geometricPrecision; image-rendering:optimizeQuality; fill-rule:evenodd; clip-rule:evenodd"
viewBox="0 0 169.86 356.71"
 xmlns:xlink="http://www.w3.org/1999/xlink"
 xmlns:xodm="http://www.corel.com/coreldraw/odm/2003">
 <defs>
  <style type="text/css">
   <![CDATA[
    .fil0 {fill:#1AB7F5;fill-rule:nonzero}
   ]]>
  </style>
 </defs>
 <g id="Layer_x0020_1">
  <metadata id="CorelCorpID_0Corel-Layer"/>
  <g id="_105553667321088">
   <path class="fil0" d="M10.54 203.25l148.77 0c5.57,0 10.54,4.98 10.54,10.54l0 24.6c0,5.86 -4.98,10.54 -10.54,10.54l-148.77 0c-5.86,0 -10.54,-4.69 -10.54,-10.54l0 -24.6c0,-5.57 4.69,-10.54 10.54,-10.54zm146.43 25.19l0 -4.69c0,-1.76 -1.76,-3.51 -3.51,-3.51l-18.74 0c-2.05,0 -3.51,1.76 -3.51,3.51l0 4.69c0,2.05 1.46,3.51 3.51,3.51l18.74 0c1.76,0 3.51,-1.46 3.51,-3.51l-0 0zm-146.43 28.7l148.77 0c5.57,0 10.54,4.69 10.54,10.54l0 24.6c0,5.86 -4.98,10.54 -10.54,10.54l-148.77 0c-5.86,0 -10.54,-4.69 -10.54,-10.54l0 -24.6c0,-5.86 4.69,-10.54 10.54,-10.54zm146.43 25.19l0 -4.69c0,-1.76 -1.76,-3.51 -3.51,-3.51l-18.74 0c-2.05,0 -3.51,1.76 -3.51,3.51l0 4.69c0,2.05 1.46,3.51 3.51,3.51l18.74 0c1.76,0 3.51,-1.46 3.51,-3.51l-0 0zm-146.43 28.7l148.77 0c5.57,0 10.54,4.69 10.54,10.54l0 24.6c0,5.86 -4.98,10.54 -10.54,10.54l-148.77 0c-5.86,0 -10.54,-4.69 -10.54,-10.54l0 -24.6c0,-5.86 4.69,-10.54 10.54,-10.54zm146.43 25.19l0 -4.69c0,-2.05 -1.76,-3.51 -3.51,-3.51l-18.74 0c-2.05,0 -3.51,1.46 -3.51,3.51l0 4.69c0,2.05 1.46,3.51 3.51,3.51l18.74 0c1.76,0 3.51,-1.46 3.51,-3.51l-0 0z"/>
   <path class="fil0" d="M10.54 39.82l148.77 0c5.57,0 10.54,4.98 10.54,10.54l0 24.6c0,5.86 -4.98,10.54 -10.54,10.54l-148.77 0c-5.86,0 -10.54,-4.69 -10.54,-10.54l0 -24.6c0,-5.57 4.69,-10.54 10.54,-10.54zm146.43 25.19l0 -4.69c0,-1.76 -1.76,-3.51 -3.51,-3.51l-18.74 0c-2.05,0 -3.51,1.76 -3.51,3.51l0 4.69c0,2.05 1.46,3.51 3.51,3.51l18.74 0c1.76,0 3.51,-1.46 3.51,-3.51l-0 0zm-146.43 28.7l148.77 0c5.57,0 10.54,4.69 10.54,10.54l0 24.6c0,5.86 -4.98,10.54 -10.54,10.54l-148.77 0c-5.86,0 -10.54,-4.69 -10.54,-10.54l0 -24.6c0,-5.86 4.69,-10.54 10.54,-10.54zm146.43 25.19l0 -4.69c0,-1.76 -1.76,-3.51 -3.51,-3.51l-18.74 0c-2.05,0 -3.51,1.76 -3.51,3.51l0 4.69c0,2.05 1.46,3.51 3.51,3.51l18.74 0c1.76,0 3.51,-1.46 3.51,-3.51l-0 0zm-146.43 28.7l148.77 0c5.57,0 10.54,4.69 10.54,10.54l0 24.6c0,5.86 -4.98,10.54 -10.54,10.54l-148.77 0c-5.86,0 -10.54,-4.69 -10.54,-10.54l0 -24.6c0,-5.86 4.69,-10.54 10.54,-10.54zm146.43 25.19l0 -4.69c0,-2.05 -1.76,-3.51 -3.51,-3.51l-18.74 0c-2.05,0 -3.51,1.46 -3.51,3.51l0 4.69c0,2.05 1.46,3.51 3.51,3.51l18.74 0c1.76,0 3.51,-1.46 3.51,-3.51l-0 0zm2.34 -140.86l-148.77 0c-1.76,0 -3.51,0.29 -4.98,0.88l17.86 -24.31c3.51,-4.69 11.13,-8.49 16.99,-8.49l89.03 -0c5.57,0 13.18,3.8 16.69,8.49l18.16 24.31c-1.76,-0.59 -3.51,-0.88 -4.98,-0.88l-0.01 0z"/>
  </g>
 </g>
</svg>
