<?xml version="1.0" encoding="UTF-8"?>
<!DOCTYPE svg PUBLIC "-//W3C//DTD SVG 1.1//EN" "http://www.w3.org/Graphics/SVG/1.1/DTD/svg11.dtd">
<!-- Creator: CorelDRAW 2021.5 -->
<svg xmlns="http://www.w3.org/2000/svg" xml:space="preserve" width="85.8727mm" height="85.8354mm" version="1.1" style="shape-rendering:geometricPrecision; text-rendering:geometricPrecision; image-rendering:optimizeQuality; fill-rule:evenodd; clip-rule:evenodd"
viewBox="0 0 868.34 867.97"
 xmlns:xlink="http://www.w3.org/1999/xlink"
 xmlns:xodm="http://www.corel.com/coreldraw/odm/2003">
 <defs>
  <style type="text/css">
   <![CDATA[
    .fil1 {fill:#FF9045}
    .fil0 {fill:#FF9045;fill-rule:nonzero}
   ]]>
  </style>
 </defs>
 <g id="Layer_x0020_1">
  <metadata id="CorelCorpID_0Corel-Layer"/>
  <g id="_105553590234720">
   <path class="fil0" d="M107.1 358.72c0.34,3.1 0.69,6.23 1.04,9.4l5.45 49.07c3.83,34.46 7.15,64.35 12.94,88.2 6.23,25.66 16.5,49.83 37.92,69 21.42,19.17 46.58,26.71 72.76,30.06 24.34,3.12 54.42,3.12 89.09,3.12l232.33 0c23.77,0 44.76,0 62.28,-1.78 18.99,-1.93 37.43,-6.2 55.17,-16.88 17.74,-10.68 30.14,-24.98 40.73,-40.86 9.77,-14.65 19.59,-33.2 30.71,-54.2l108.04 -204.07c38.33,-72.41 -14.16,-159.59 -96.09,-159.59l-438.37 0c-42.65,-0 -79.14,-0 -108.02,4.03 -14.62,2.04 -28.94,5.31 -42.38,10.89l-6.24 -56.18c-5.62,-50.63 -48.42,-88.93 -99.36,-88.93l-21.7 0c-23.97,0 -43.4,19.43 -43.4,43.4 0,23.97 19.43,43.4 43.4,43.4l21.7 0c6.71,0 12.35,5.05 13.09,11.72l28.91 260.21z"/>
   <path class="fil1" d="M520.78 759.47c0,-59.92 48.58,-108.5 108.5,-108.5 59.92,0 108.5,48.57 108.5,108.5 0,59.92 -48.58,108.5 -108.5,108.5 -59.92,0 -108.5,-48.58 -108.5,-108.5z"/>
   <path class="fil1" d="M130.19 759.47c0,-59.92 48.57,-108.5 108.5,-108.5 59.92,0 108.5,48.57 108.5,108.5 0,59.92 -48.57,108.5 -108.5,108.5 -59.92,0 -108.5,-48.58 -108.5,-108.5z"/>
  </g>
 </g>
</svg>
