<?xml version="1.0" encoding="UTF-8"?>
<!DOCTYPE svg PUBLIC "-//W3C//DTD SVG 1.1//EN" "http://www.w3.org/Graphics/SVG/1.1/DTD/svg11.dtd">
<!-- Creator: CorelDRAW 2021.5 -->
<svg xmlns="http://www.w3.org/2000/svg" xml:space="preserve" width="35.9956mm" height="35.9947mm" version="1.1" style="shape-rendering:geometricPrecision; text-rendering:geometricPrecision; image-rendering:optimizeQuality; fill-rule:evenodd; clip-rule:evenodd"
viewBox="0 0 46.1 46.1"
 xmlns:xlink="http://www.w3.org/1999/xlink"
 xmlns:xodm="http://www.corel.com/coreldraw/odm/2003">
 <defs>
  <style type="text/css">
   <![CDATA[
    .fil0 {fill:#79A729}
    .fil1 {fill:black;fill-rule:nonzero}
   ]]>
  </style>
 </defs>
 <g id="Layer_x0020_1">
  <metadata id="CorelCorpID_0Corel-Layer"/>
  <g id="_105553468514080">
   <polygon class="fil0" points="-0,0 46.1,0 46.1,46.1 "/>
   <path class="fil1" d="M38.16 25.96l-18.56 -6.37 6.36 18.56 2.5 -3.76c0.45,-0.67 1.36,-0.86 2.03,-0.41 0.09,0.06 0.17,0.13 0.25,0.21 9.48,9.48 6.41,11.53 12.42,5.51 0,-0 -8.22,-8.22 -8.99,-8.99 -0.57,-0.57 -0.57,-1.5 0,-2.07 0.09,-0.09 0.2,-0.17 0.31,-0.24l3.67 -2.45zm-16.64 -19.38c0.76,0.27 1.15,1.11 0.88,1.87 -0.27,0.76 -1.11,1.15 -1.87,0.88 -0.79,-0.28 -1.63,-0.46 -2.47,-0.52 -0.85,-0.06 -1.7,-0 -2.53,0.17 -0.83,0.17 -1.63,0.46 -2.37,0.85 -0.74,0.39 -1.42,0.88 -2.02,1.45 -0.6,0.58 -1.1,1.23 -1.5,1.93 -0.4,0.7 -0.69,1.46 -0.87,2.25 -0.18,0.79 -0.96,1.28 -1.75,1.11 -0.79,-0.18 -1.28,-0.96 -1.11,-1.75 0.24,-1.07 0.64,-2.1 1.18,-3.05 0.54,-0.95 1.22,-1.82 2.02,-2.6 0.8,-0.77 1.7,-1.42 2.68,-1.94 0.98,-0.51 2.03,-0.89 3.14,-1.13 1.1,-0.23 2.22,-0.31 3.32,-0.23 1.1,0.08 2.2,0.31 3.26,0.69zm-5.4 24.71c0.81,0.06 1.41,0.76 1.36,1.56 -0.06,0.81 -0.76,1.41 -1.56,1.36 -1.63,-0.12 -3.23,-0.47 -4.76,-1.04 -1.52,-0.57 -2.96,-1.35 -4.28,-2.34 -1.31,-0.98 -2.47,-2.14 -3.44,-3.44 -0.97,-1.3 -1.76,-2.74 -2.34,-4.28 -0.58,-1.55 -0.92,-3.15 -1.04,-4.76 -0.12,-1.62 -0,-3.26 0.35,-4.86 0.35,-1.6 0.92,-3.13 1.71,-4.57 0.79,-1.44 1.77,-2.75 2.92,-3.91 1.15,-1.15 2.47,-2.13 3.91,-2.92 1.43,-0.78 2.97,-1.36 4.57,-1.71 1.6,-0.35 3.24,-0.46 4.86,-0.35 1.61,0.12 3.22,0.46 4.76,1.04 1.54,0.57 2.98,1.36 4.28,2.34 1.3,0.97 2.46,2.13 3.44,3.45 0.97,1.29 1.74,2.7 2.3,4.19 0.57,1.49 0.92,3.06 1.06,4.66 0.07,0.81 -0.53,1.51 -1.34,1.58 -0.81,0.07 -1.51,-0.53 -1.58,-1.34 -0.11,-1.33 -0.41,-2.63 -0.87,-3.87 -0.47,-1.24 -1.11,-2.4 -1.9,-3.47 -0.82,-1.09 -1.78,-2.05 -2.86,-2.86 -1.08,-0.81 -2.27,-1.46 -3.55,-1.94 -1.27,-0.47 -2.6,-0.76 -3.95,-0.86 -1.34,-0.1 -2.7,-0 -4.03,0.29 -1.34,0.29 -2.61,0.77 -3.79,1.41 -1.17,0.64 -2.26,1.45 -3.23,2.43 -0.97,0.97 -1.79,2.06 -2.43,3.23 -0.64,1.18 -1.12,2.45 -1.41,3.79 -0.29,1.33 -0.39,2.69 -0.29,4.03 0.1,1.35 0.38,2.68 0.86,3.95 0.48,1.28 1.13,2.47 1.94,3.55 0.81,1.08 1.77,2.04 2.86,2.86 1.09,0.82 2.28,1.47 3.55,1.94 1.26,0.47 2.59,0.76 3.95,0.86zm1.6 -15.44l24.2 8.3 -0 0c0.3,0.1 0.56,0.3 0.75,0.58 0.45,0.67 0.26,1.58 -0.41,2.03l-4.73 3.15 7.73 7.73 -0 0 0 0c0.27,0.27 0.49,0.6 0.63,0.95 0.15,0.36 0.23,0.74 0.23,1.12 0,0.38 -0.08,0.76 -0.23,1.12 -0.13,0.31 -0.31,0.59 -0.53,0.84 -0.03,0.04 -0.07,0.08 -0.1,0.11l-3.46 3.46 -0 -0c-0.27,0.27 -0.6,0.49 -0.95,0.64 -0.36,0.15 -0.74,0.23 -1.12,0.23 -0.38,0 -0.76,-0.08 -1.12,-0.23 -0.36,-0.15 -0.69,-0.36 -0.96,-0.63l-7.72 -7.72 -3.16 4.73 -0 -0c-0.17,0.26 -0.43,0.46 -0.74,0.57 -0.77,0.26 -1.6,-0.15 -1.86,-0.91 -2.76,-8.06 -5.6,-16.12 -8.3,-24.2 -0.1,-0.3 -0.11,-0.63 0,-0.95 0.26,-0.77 1.1,-1.17 1.86,-0.91zm21.99 27.32c-0,-0 -0.01,-0 -0,0 0,0 0,0 0,-0z"/>
  </g>
 </g>
</svg>
