<?xml version="1.0" encoding="UTF-8"?>
<!DOCTYPE svg PUBLIC "-//W3C//DTD SVG 1.1//EN" "http://www.w3.org/Graphics/SVG/1.1/DTD/svg11.dtd">
<!-- Creator: CorelDRAW 2021.5 -->
<svg xmlns="http://www.w3.org/2000/svg" xml:space="preserve" width="35.9955mm" height="35.9955mm" version="1.1" style="shape-rendering:geometricPrecision; text-rendering:geometricPrecision; image-rendering:optimizeQuality; fill-rule:evenodd; clip-rule:evenodd"
viewBox="0 0 42.77 42.77"
 xmlns:xlink="http://www.w3.org/1999/xlink"
 xmlns:xodm="http://www.corel.com/coreldraw/odm/2003">
 <defs>
  <style type="text/css">
   <![CDATA[
    .fil0 {fill:#79A729}
    .fil1 {fill:black;fill-rule:nonzero}
   ]]>
  </style>
 </defs>
 <g id="Layer_x0020_1">
  <metadata id="CorelCorpID_0Corel-Layer"/>
  <g id="_105553466992480">
   <polygon class="fil0" points="-0,42.77 42.77,42.77 21.9,11.03 "/>
   <path class="fil1" d="M6.37 20.02l13.65 0 0 -6.82c0,-0.75 0.61,-1.36 1.36,-1.36 0.75,0 1.36,0.61 1.36,1.36l0 6.82 12.28 0c1.13,0 2.15,0.46 2.9,1.2 0.74,0.74 1.2,1.76 1.2,2.9l0 4.55c0,0.75 -0.61,1.36 -1.36,1.36 -0.75,0 -1.36,-0.61 -1.36,-1.36l0 -4.55c0,-0.38 -0.15,-0.72 -0.4,-0.97 -0.25,-0.25 -0.59,-0.4 -0.97,-0.4l-12.28 0 0 5.91c0,0.75 -0.61,1.36 -1.36,1.36 -0.75,0 -1.36,-0.61 -1.36,-1.36l0 -5.91 -13.65 0 0 5.91c0,0.75 -0.61,1.36 -1.36,1.36 -0.75,0 -1.36,-0.61 -1.36,-1.36l0 -7.28 0 -7.28c0,-0.75 0.61,-1.36 1.36,-1.36 0.75,0 1.36,0.61 1.36,1.36l0 5.91zm0.91 17.74c0,-0.63 -0.25,-1.2 -0.67,-1.61 -0.41,-0.41 -0.98,-0.67 -1.61,-0.67 -0.63,0 -1.2,0.25 -1.61,0.67 -0.41,0.41 -0.67,0.98 -0.67,1.61 0,0.63 0.25,1.2 0.67,1.61 0.41,0.41 0.98,0.67 1.61,0.67 0.63,0 1.2,-0.25 1.61,-0.67 0.41,-0.41 0.67,-0.98 0.67,-1.61zm1.26 -3.54c0.91,0.91 1.47,2.16 1.47,3.54 0,1.38 -0.56,2.63 -1.47,3.54 -0.91,0.91 -2.16,1.47 -3.54,1.47 -1.38,0 -2.63,-0.56 -3.54,-1.47 -0.91,-0.91 -1.47,-2.16 -1.47,-3.54 0,-1.38 0.56,-2.63 1.47,-3.54 0.91,-0.91 2.16,-1.47 3.54,-1.47 1.38,0 2.63,0.56 3.54,1.47zm31.49 3.54c0,-0.63 -0.25,-1.2 -0.67,-1.61 -0.41,-0.41 -0.98,-0.67 -1.61,-0.67 -0.63,0 -1.2,0.25 -1.61,0.67 -0.41,0.41 -0.67,0.98 -0.67,1.61 0,0.63 0.25,1.2 0.67,1.61 0.41,0.41 0.98,0.67 1.61,0.67 0.63,0 1.2,-0.25 1.61,-0.67 0.41,-0.41 0.67,-0.98 0.67,-1.61zm1.26 -3.54c0.91,0.91 1.47,2.16 1.47,3.54 0,1.38 -0.56,2.63 -1.47,3.54 -0.91,0.91 -2.16,1.47 -3.54,1.47 -1.38,0 -2.63,-0.56 -3.54,-1.47 -0.91,-0.91 -1.47,-2.16 -1.47,-3.54 0,-1.38 0.56,-2.63 1.47,-3.54 0.91,-0.91 2.16,-1.47 3.54,-1.47 1.38,0 2.63,0.56 3.54,1.47zm-17.64 3.54c0,-0.63 -0.25,-1.2 -0.67,-1.61 -0.41,-0.41 -0.98,-0.67 -1.61,-0.67 -0.63,0 -1.2,0.25 -1.61,0.67 -0.41,0.41 -0.67,0.98 -0.67,1.61 0,0.63 0.25,1.2 0.67,1.61 0.41,0.41 0.98,0.67 1.61,0.67 0.63,0 1.2,-0.25 1.61,-0.67 0.41,-0.41 0.67,-0.98 0.67,-1.61zm1.26 -3.54c0.91,0.91 1.47,2.16 1.47,3.54 0,1.38 -0.56,2.63 -1.47,3.54 -0.91,0.91 -2.16,1.47 -3.54,1.47 -1.38,0 -2.63,-0.56 -3.54,-1.47 -0.91,-0.91 -1.47,-2.16 -1.47,-3.54 0,-1.38 0.56,-2.63 1.47,-3.54 0.91,-0.91 2.16,-1.47 3.54,-1.47 1.38,0 2.63,0.56 3.54,1.47zm-17.64 -29.22c0,-0.63 -0.25,-1.2 -0.67,-1.61 -0.41,-0.41 -0.98,-0.67 -1.61,-0.67 -0.63,0 -1.2,0.25 -1.61,0.67 -0.41,0.41 -0.67,0.98 -0.67,1.61 0,0.63 0.25,1.2 0.67,1.61 0.41,0.41 0.98,0.67 1.61,0.67 0.63,0 1.2,-0.25 1.61,-0.67 0.41,-0.41 0.67,-0.98 0.67,-1.61zm1.26 -3.54c0.91,0.91 1.47,2.16 1.47,3.54 0,1.38 -0.56,2.63 -1.47,3.54 -0.91,0.91 -2.16,1.47 -3.54,1.47 -1.38,0 -2.63,-0.56 -3.54,-1.47 -0.91,-0.91 -1.47,-2.16 -1.47,-3.54 0,-1.38 0.56,-2.63 1.47,-3.54 0.91,-0.91 2.16,-1.47 3.54,-1.47 1.38,0 2.63,0.56 3.54,1.47zm15.12 3.54c0,-0.63 -0.25,-1.2 -0.67,-1.61 -0.41,-0.41 -0.98,-0.67 -1.61,-0.67 -0.63,0 -1.2,0.25 -1.61,0.67 -0.41,0.41 -0.67,0.98 -0.67,1.61 0,0.63 0.25,1.2 0.67,1.61 0.41,0.41 0.98,0.67 1.61,0.67 0.63,0 1.2,-0.25 1.61,-0.67 0.41,-0.41 0.67,-0.98 0.67,-1.61zm1.26 -3.54c0.91,0.91 1.47,2.16 1.47,3.54 0,1.38 -0.56,2.63 -1.47,3.54 -0.91,0.91 -2.16,1.47 -3.54,1.47 -1.38,0 -2.63,-0.56 -3.54,-1.47 -0.91,-0.91 -1.47,-2.16 -1.47,-3.54 0,-1.38 0.56,-2.63 1.47,-3.54 0.91,-0.91 2.16,-1.47 3.54,-1.47 1.38,0 2.63,0.56 3.54,1.47z"/>
  </g>
 </g>
</svg>
