<?xml version="1.0" encoding="UTF-8"?>
<!DOCTYPE svg PUBLIC "-//W3C//DTD SVG 1.1//EN" "http://www.w3.org/Graphics/SVG/1.1/DTD/svg11.dtd">
<!-- Creator: CorelDRAW 2021.5 -->
<svg xmlns="http://www.w3.org/2000/svg" xml:space="preserve" width="23.1542mm" height="17.9344mm" version="1.1" style="shape-rendering:geometricPrecision; text-rendering:geometricPrecision; image-rendering:optimizeQuality; fill-rule:evenodd; clip-rule:evenodd"
viewBox="0 0 12.69 9.83"
 xmlns:xlink="http://www.w3.org/1999/xlink"
 xmlns:xodm="http://www.corel.com/coreldraw/odm/2003">
 <defs>
  <style type="text/css">
   <![CDATA[
    .fil1 {fill:black}
    .fil0 {fill:#1DB7F5}
   ]]>
  </style>
 </defs>
 <g id="Layer_x0020_1">
  <metadata id="CorelCorpID_0Corel-Layer"/>
  <g id="_105553502161568">
   <rect class="fil0" x="5.25" width="7.45" height="9.83"/>
   <path class="fil1" d="M9.23 3.18l0 -1.71c0,-0.77 -0.58,-1.47 -1.38,-1.47l-6.46 0c-0.8,0 -1.38,0.7 -1.38,1.47l0 6.82c0,0.77 0.58,1.47 1.38,1.47l1.62 0c0.18,0 0.31,-0.16 0.31,-0.34 0,-0.17 -0.13,-0.34 -0.31,-0.34l-1.62 0c-0.44,0 -0.77,-0.37 -0.77,-0.8l0 -6.82c0,-0.43 0.33,-0.8 0.77,-0.8l6.46 0c0.44,0 0.77,0.37 0.77,0.8l0 1.71c0,0.17 0.13,0.34 0.31,0.34 0.18,0 0.31,-0.16 0.31,-0.34z"/>
   <path class="fil1" d="M5.73 6.42l6.38 0c0.22,0 0.41,-0.17 0.41,-0.4 0,-0.22 -0.19,-0.4 -0.41,-0.4l-6.38 0c-0.22,0 -0.41,0.17 -0.41,0.4 0,0.22 0.19,0.4 0.41,0.4z"/>
   <path class="fil1" d="M5.73 9.83l6.38 0c0.22,0 0.41,-0.17 0.41,-0.4 0,-0.22 -0.19,-0.4 -0.41,-0.4l-6.38 0c-0.22,0 -0.41,0.17 -0.41,0.4 0,0.22 0.19,0.4 0.41,0.4z"/>
   <path class="fil1" d="M5.73 8.13l6.38 0c0.22,0 0.41,-0.17 0.41,-0.4 0,-0.22 -0.19,-0.4 -0.41,-0.4l-6.38 0c-0.22,0 -0.41,0.17 -0.41,0.4 0,0.22 0.19,0.4 0.41,0.4z"/>
  </g>
 </g>
</svg>
