<?xml version="1.0" encoding="UTF-8"?>
<!DOCTYPE svg PUBLIC "-//W3C//DTD SVG 1.1//EN" "http://www.w3.org/Graphics/SVG/1.1/DTD/svg11.dtd">
<!-- Creator: CorelDRAW 2021.5 -->
<svg xmlns="http://www.w3.org/2000/svg" xml:space="preserve" width="47.0126mm" height="50.7113mm" version="1.1" style="shape-rendering:geometricPrecision; text-rendering:geometricPrecision; image-rendering:optimizeQuality; fill-rule:evenodd; clip-rule:evenodd"
viewBox="0 0 314.57 339.32"
 xmlns:xlink="http://www.w3.org/1999/xlink"
 xmlns:xodm="http://www.corel.com/coreldraw/odm/2003">
 <defs>
  <style type="text/css">
   <![CDATA[
    .fil1 {fill:black}
    .fil0 {fill:#1AB7F5}
   ]]>
  </style>
 </defs>
 <g id="Layer_x0020_1">
  <metadata id="CorelCorpID_0Corel-Layer"/>
  <g id="_105553505679168">
   <polygon class="fil0" points="314.57,0 -0,0 -0,339.32 "/>
   <path class="fil1" d="M158.61 147.42c0.33,1.46 0.62,2.95 0.62,4.44 0,12.61 -10.36,22.8 -22.93,22.8 -0.21,0 -0.38,-0.02 -0.53,-0.05 -22.38,37.53 -20.91,84.64 4.12,120.72l0.91 1.32 -11.51 8.25 -0.94 -1.36c-13.28,-19.14 -20.98,-41.39 -22.26,-64.65 -1.07,-19.36 2.36,-38.73 9.94,-56.51l-45.74 45.74 0 41.05 -51.29 0 0 -51.29 41.05 0 55.97 -55.97c-1.6,-3.13 -2.53,-6.47 -2.53,-10.03 0,-12.57 10.2,-22.93 22.8,-22.93 3.56,0 7.01,0.93 10.16,2.53l55.97 -55.97 0 -41.05 7.19 0 44.11 0 0 51.29 -41.05 0 -30.51 30.52c14.34,-6.23 29.73,-9.8 45.4,-10.34 24.05,-0.83 47.98,5.37 68.65,17.7l1.38 0.82 -7.2 12.34 -1.41 -0.84c-37.56,-22.4 -85,-20.75 -120.92,4.18 -3.28,2.27 -6.43,4.72 -9.45,7.32zm58.19 -98.61l0 22.56 22.56 0 0 -22.56 -22.56 0zm-183.43 183.43l0 22.56 22.56 0 0 -22.56 -22.56 0z"/>
  </g>
 </g>
</svg>
