<?xml version="1.0" encoding="UTF-8"?>
<!DOCTYPE svg PUBLIC "-//W3C//DTD SVG 1.1//EN" "http://www.w3.org/Graphics/SVG/1.1/DTD/svg11.dtd">
<!-- Creator: CorelDRAW 2021.5 -->
<svg xmlns="http://www.w3.org/2000/svg" xml:space="preserve" width="50.7999mm" height="40.1034mm" version="1.1" style="shape-rendering:geometricPrecision; text-rendering:geometricPrecision; image-rendering:optimizeQuality; fill-rule:evenodd; clip-rule:evenodd"
viewBox="0 0 246.44 194.55"
 xmlns:xlink="http://www.w3.org/1999/xlink"
 xmlns:xodm="http://www.corel.com/coreldraw/odm/2003">
 <defs>
  <style type="text/css">
   <![CDATA[
    .fil0 {fill:#FBCC24}
    .fil1 {fill:black;fill-rule:nonzero}
   ]]>
  </style>
 </defs>
 <g id="Layer_x0020_1">
  <metadata id="CorelCorpID_0Corel-Layer"/>
  <g id="_105553515759104">
   <rect class="fil0" x="0" y="0" width="246.44" height="101.16"/>
   <g>
    <g>
     <g>
      <polygon class="fil1" points="195.56,114.96 189.05,121.38 221.98,154.75 189.05,188.13 195.56,194.55 234.82,154.75 "/>
     </g>
    </g>
    <g>
     <g>
      <polygon class="fil1" points="57.38,121.38 50.87,114.96 11.62,154.75 50.87,194.55 57.38,188.13 24.46,154.75 "/>
     </g>
    </g>
    <g>
     <g>
      <path class="fil1" d="M194.64 12.99l-142.84 0 -25.6 51.2 97.02 97.02 97.02 -97.02 -25.6 -51.2zm-5.65 9.15l18.29 36.58 -49.7 0 -6.1 -36.58 37.51 0zm-84.76 0l37.98 0 6.1 36.58 -50.18 0 6.1 -36.58zm-46.78 0l37.51 0 -6.1 36.58 -49.7 0 18.29 -36.58zm-14.65 45.73l46.64 0 23.32 69.96 -69.96 -69.96zm56.28 0l48.29 0 -24.15 72.43 -24.14 -72.43zm34.61 69.96l23.32 -69.96 46.64 0 -69.96 69.96z"/>
     </g>
    </g>
   </g>
  </g>
 </g>
</svg>
