<?xml version="1.0" encoding="UTF-8"?>
<!DOCTYPE svg PUBLIC "-//W3C//DTD SVG 1.1//EN" "http://www.w3.org/Graphics/SVG/1.1/DTD/svg11.dtd">
<!-- Creator: CorelDRAW 2021.5 -->
<svg xmlns="http://www.w3.org/2000/svg" xml:space="preserve" width="32.4983mm" height="29.8936mm" version="1.1" style="shape-rendering:geometricPrecision; text-rendering:geometricPrecision; image-rendering:optimizeQuality; fill-rule:evenodd; clip-rule:evenodd"
viewBox="0 0 36.84 33.89"
 xmlns:xlink="http://www.w3.org/1999/xlink"
 xmlns:xodm="http://www.corel.com/coreldraw/odm/2003">
 <defs>
  <style type="text/css">
   <![CDATA[
    .fil1 {fill:black}
    .fil0 {fill:#FCCC25}
   ]]>
  </style>
 </defs>
 <g id="Layer_x0020_1">
  <metadata id="CorelCorpID_0Corel-Layer"/>
  <g id="_105553533294208">
   <rect class="fil0" x="18.41" y="0" width="18.42" height="33.89"/>
   <path class="fil1" d="M11.56 3.16c1.69,-2 4.24,-3.16 6.85,-3.16 5.06,0 9.05,4.1 9,9.15 -0.02,2.22 -0.84,4.3 -2.29,5.98 -0.03,0.03 -0.05,0.05 -0.07,0.07 -1.71,1.86 -4.11,2.95 -6.64,2.95 -2.55,0 -5,-1.15 -6.71,-3.03 -1.53,-1.68 -2.36,-3.77 -2.36,-6.05 0,-2.12 0.75,-4.21 2.13,-5.82 0.01,-0.05 0.04,-0.09 0.09,-0.09zm3.22 2.63c-0.84,-0.28 -1.69,-0.63 -2.46,-1.08 -0.84,1.07 -1.3,2.32 -1.37,3.68l3.54 -0c0.07,-0.86 0.13,-1.74 0.29,-2.59zm11.11 2.52c-0.08,-1.27 -0.57,-2.5 -1.3,-3.53 -0.81,0.44 -1.62,0.8 -2.53,1.01 0.15,0.83 0.29,1.67 0.29,2.52l3.54 0zm-1.52 5.36c0.88,-1.11 1.37,-2.42 1.52,-3.83l-3.54 0c-0,0.98 -0.14,1.93 -0.29,2.89 0.78,0.26 1.59,0.54 2.31,0.94zm-8.13 -7.57c-0.08,0.76 -0.15,1.52 -0.21,2.28l4.79 -0c-0,-0.73 -0.06,-1.5 -0.21,-2.21 -0.7,0.07 -1.4,0.14 -2.11,0.14 -0.75,0 -1.52,-0.07 -2.25,-0.21zm0.38 -1.53c1.19,0.22 2.48,0.21 3.67,-0 -0.2,-0.7 -0.98,-2.88 -1.87,-2.88 -0.87,0 -1.6,2.2 -1.8,2.89zm4.19 5.28l-4.86 0c0.06,0.88 0.13,1.78 0.29,2.65 0.67,-0.15 1.34,-0.21 2.03,-0.21 0.75,0 1.51,-0 2.25,0.14 0.16,-0.86 0.28,-1.7 0.29,-2.58zm-5.65 4.42c-0.52,0.13 -1.06,0.32 -1.54,0.56 0.69,0.55 1.46,1.04 2.3,1.33 -0.35,-0.58 -0.56,-1.24 -0.76,-1.89zm1.46 -0.31c0.21,0.69 0.91,2.66 1.8,2.66 0.85,0 1.59,-1.99 1.8,-2.66 -0.62,-0.07 -1.24,-0.14 -1.87,-0.14 -0.58,0 -1.15,0.07 -1.72,0.14zm5.05 0.3c-0.2,0.65 -0.41,1.31 -0.76,1.89 0.88,-0.28 1.65,-0.76 2.37,-1.33 -0.53,-0.23 -1.04,-0.43 -1.61,-0.56zm-0.84 -12.27c0.41,0.74 0.72,1.51 0.92,2.34 0.62,-0.21 1.25,-0.41 1.84,-0.7 -0.78,-0.77 -1.7,-1.34 -2.75,-1.63zm-5.75 2.26c0.2,-0.79 0.52,-1.61 0.91,-2.33 -0.98,0.36 -1.89,0.93 -2.67,1.63 0.57,0.28 1.16,0.5 1.76,0.7zm-4.14 5.66c0.08,1.42 0.64,2.72 1.52,3.82 0.71,-0.47 1.48,-0.74 2.31,-0.94 -0.15,-0.96 -0.28,-1.92 -0.29,-2.89l-3.54 0zm-4.28 23.09c-0.32,0.54 -0.85,0.88 -1.49,0.88l-3.53 0c-0.94,0 -1.65,-0.8 -1.65,-1.72l0 -7.5c0,-0.9 0.75,-1.65 1.65,-1.65l3.53 0c0.69,0 1.31,0.46 1.56,1.09l5.05 -1.97c0.43,-0.14 0.88,-0.22 1.33,-0.22l7.21 0c1.22,0 2.36,0.56 2.97,1.63 0.34,0.67 0.46,1.34 0.17,2.04l1.35 0c0.27,0 0.56,-0.06 0.79,-0.22l6.77 -3.24c0.27,-0.14 0.52,-0.22 0.82,-0.3 0.95,-0.22 2.29,-0.3 3.04,0.45 0.55,0.44 0.65,1.13 0.6,1.79 -0.16,1.03 -0.88,1.89 -1.78,2.38l-8.02 4.19c-0.31,0.15 -0.63,0.23 -0.96,0.3l-11.25 1.98c-0.21,0.07 -0.37,0.07 -0.6,0.07l-7.56 0zm-1.49 -0.65c0.06,0 0.12,-0.06 0.12,-0.12l0 -7.5c0,-0.06 -0.06,-0.12 -0.12,-0.12l-3.53 0c-0.06,0 -0.12,0.06 -0.12,0.12l0 7.5c0,0.06 0.06,0.12 0.12,0.12l3.53 0zm1.72 -6.57l0 5.54 7.4 0c0.1,0 0.2,0 0.29,0l11.25 -1.99c0.15,-0 0.37,-0.08 0.5,-0.14l8.01 -4.19c0.46,-0.26 0.86,-0.68 0.94,-1.22 -0,-0.04 0.01,-0.26 -0.01,-0.28 -0,0 -0,0.01 -0.01,0.01l-0.02 0.02 -0.02 -0.01c-0.42,-0.28 -1.29,-0.17 -1.74,-0.07 -0.15,0 -0.3,0.08 -0.43,0.14l-6.77 3.24c-0.48,0.16 -0.98,0.3 -1.48,0.3l-3.08 -0c-0.39,0.16 -0.83,0.22 -1.26,0.22l-6.91 0c-0.46,0 -0.77,-0.31 -0.77,-0.77 0,-0.46 0.31,-0.77 0.77,-0.77l6.91 0c0.5,0 1.05,-0.17 1.38,-0.58 0.35,-0.28 0.36,-0.55 0.14,-0.92 -0.33,-0.57 -1.03,-0.87 -1.66,-0.87l-7.21 -0c-0.23,0 -0.51,0.07 -0.72,0.15l-5.49 2.2z"/>
  </g>
 </g>
</svg>
