<?xml version="1.0" encoding="UTF-8"?>
<!DOCTYPE svg PUBLIC "-//W3C//DTD SVG 1.1//EN" "http://www.w3.org/Graphics/SVG/1.1/DTD/svg11.dtd">
<!-- Creator: CorelDRAW 2021.5 -->
<svg xmlns="http://www.w3.org/2000/svg" xml:space="preserve" width="48.0992mm" height="50.7827mm" version="1.1" style="shape-rendering:geometricPrecision; text-rendering:geometricPrecision; image-rendering:optimizeQuality; fill-rule:evenodd; clip-rule:evenodd"
viewBox="0 0 221.5 233.86"
 xmlns:xlink="http://www.w3.org/1999/xlink"
 xmlns:xodm="http://www.corel.com/coreldraw/odm/2003">
 <defs>
  <style type="text/css">
   <![CDATA[
    .fil1 {fill:black}
    .fil0 {fill:#FF9045}
   ]]>
  </style>
 </defs>
 <g id="Layer_x0020_1">
  <metadata id="CorelCorpID_0Corel-Layer"/>
  <g id="_105553505502816">
   <rect class="fil0" x="0" y="-0" width="110.88" height="233.86"/>
   <path class="fil1" d="M195.76 16.65l-106.48 0c-4.78,0 -9.57,-0.02 -14.35,0.12 -3.61,0.11 -7.3,0.3 -10.87,0.86 -5.56,0.86 -10.25,2.53 -14.28,6.56 -4.31,4.31 -5.91,9.62 -6.7,15.54 -0.46,3.46 -0.64,6.98 -0.73,10.46 -0.12,4.49 -0.11,9 -0.11,13.49l0 102.39 -1.24 0.28c-4.74,1.07 -9.08,3.47 -12.52,6.91 -4.84,4.84 -7.54,11.35 -7.54,18.2 0,6.85 2.7,13.36 7.54,18.2 4.84,4.84 11.35,7.54 18.2,7.54l117.13 0c6.85,0 13.36,-2.7 18.2,-7.54 4.84,-4.84 7.54,-11.35 7.54,-18.2l0 -133.98 11.53 0c5.44,0 10.6,-2.14 14.44,-5.98 3.84,-3.84 5.98,-9 5.98,-14.44 0,-5.44 -2.14,-10.6 -5.98,-14.44 -3.84,-3.84 -9,-5.98 -14.44,-5.98 -1.09,0 -2.18,0.09 -3.26,0.26l-0.37 0.06 -0.36 -0.11c-0.43,-0.14 -0.88,-0.2 -1.34,-0.2zm-51.64 191.67l-97.44 0c-4.48,0 -8.75,-1.77 -11.91,-4.94 -3.17,-3.17 -4.93,-7.43 -4.93,-11.91 0,-4.48 1.77,-8.75 4.93,-11.91 3.17,-3.17 7.43,-4.94 11.91,-4.94l91.39 0 0 16.85c0,5.14 1.51,10.11 4.38,14.37l1.67 2.48zm-1.61 -42.59l-91.39 0 0 -102.04c0,-4.35 -0.01,-8.7 0.09,-13.05 0.08,-3.23 0.2,-6.53 0.63,-9.73 0.5,-3.75 1.45,-7.67 4.21,-10.43 3.03,-3.03 7.67,-3.92 11.77,-4.37 3.06,-0.33 6.18,-0.44 9.26,-0.5 4.06,-0.08 8.12,-0.07 12.18,-0.07l94.75 0 -1.17 2.31c-1.45,2.86 -2.19,6.01 -2.19,9.22l0 154.4c0,4.48 -1.77,8.75 -4.93,11.91 -3.17,3.17 -7.43,4.94 -11.92,4.94 -4.48,0 -8.75,-1.77 -11.92,-4.94 -3.17,-3.17 -4.93,-7.43 -4.93,-11.91l0 -21.3c0,-2.46 -1.99,-4.45 -4.45,-4.45zm47.04 -128.66c0,-3.07 1.21,-5.98 3.38,-8.15 2.17,-2.17 5.08,-3.38 8.15,-3.38 3.07,0 5.98,1.21 8.15,3.38 2.17,2.17 3.38,5.08 3.38,8.15 0,3.07 -1.21,5.98 -3.38,8.15 -2.17,2.17 -5.08,3.38 -8.15,3.38l-11.53 0 0 -11.53zm-100.28 31.07l53.24 0c2.46,0 4.45,-1.99 4.45,-4.45 0,-2.46 -1.99,-4.45 -4.45,-4.45l-53.24 0c-2.46,0 -4.45,1.99 -4.45,4.45 0,2.46 1.99,4.45 4.45,4.45zm0 42.59l53.24 0c2.46,0 4.45,-1.99 4.45,-4.45 0,-2.46 -1.99,-4.45 -4.45,-4.45l-53.24 0c-2.46,0 -4.45,1.99 -4.45,4.45 0,2.46 1.99,4.45 4.45,4.45z"/>
  </g>
 </g>
</svg>
