<?xml version="1.0" encoding="UTF-8"?>
<!DOCTYPE svg PUBLIC "-//W3C//DTD SVG 1.1//EN" "http://www.w3.org/Graphics/SVG/1.1/DTD/svg11.dtd">
<!-- Creator: CorelDRAW 2021.5 -->
<svg xmlns="http://www.w3.org/2000/svg" xml:space="preserve" width="50.6926mm" height="44.5481mm" version="1.1" style="shape-rendering:geometricPrecision; text-rendering:geometricPrecision; image-rendering:optimizeQuality; fill-rule:evenodd; clip-rule:evenodd"
viewBox="0 0 313.43 275.44"
 xmlns:xlink="http://www.w3.org/1999/xlink"
 xmlns:xodm="http://www.corel.com/coreldraw/odm/2003">
 <defs>
  <style type="text/css">
   <![CDATA[
    .fil0 {fill:#79A729}
    .fil1 {fill:black;fill-rule:nonzero}
   ]]>
  </style>
 </defs>
 <g id="Layer_x0020_1">
  <metadata id="CorelCorpID_0Corel-Layer"/>
  <polygon class="fil0" points="0,0 0,275.44 313.43,275.44 "/>
  <g id="_105553506140416">
   <g>
    <path class="fil1" d="M280.7 19.64l-247.96 0c-9.45,0 -17.71,8.27 -17.71,17.71l0 153.5c0,9.45 8.27,17.71 17.71,17.71l88.56 0 0 35.42 -17.71 0c-3.54,0 -5.9,2.36 -5.9,5.9 0,3.54 2.36,5.9 5.9,5.9l106.27 0c3.54,0 5.9,-2.36 5.9,-5.9 0,-3.54 -2.36,-5.9 -5.9,-5.9l-17.71 0 0 -35.42 88.56 0c9.45,0 17.71,-8.27 17.71,-17.71l0 -153.5c0,-9.45 -8.27,-17.71 -17.71,-17.71zm-100.37 224.35l-47.23 0 0 -35.42 47.23 0 0 35.42zm106.27 -53.13c0,3.54 -2.36,5.9 -5.9,5.9l-247.96 0c-3.54,0 -5.9,-2.36 -5.9,-5.9l0 -17.71 259.77 0 0 17.71zm-129.88 -53.13c-12.99,0 -23.62,10.63 -23.62,23.62l-59.04 0c3.54,-42.51 38.97,-76.75 82.65,-76.75 14.17,0 25.98,3.54 37.78,9.45l-31.88 44.87c-1.18,-1.18 -3.54,-1.18 -5.9,-1.18zm-11.81 23.62c0,-7.08 4.72,-11.81 11.81,-11.81 7.08,0 11.81,4.72 11.81,11.81l-23.62 0zm28.34 -16.53l30.7 -44.87c20.07,14.17 33.06,36.6 34.24,61.4l-59.04 0c1.18,-7.08 -1.18,-12.99 -5.9,-16.53zm77.93 16.53c-3.54,-49.59 -43.69,-88.56 -94.46,-88.56 -50.77,0 -90.92,38.97 -94.46,88.56l-11.81 0c3.54,-55.5 49.59,-100.37 106.27,-100.37 56.68,0 102.73,44.87 106.27,100.37l-11.81 0zm35.42 0l-11.81 0c-3.54,-62.58 -54.31,-112.17 -118.08,-112.17 -62.58,0 -114.53,49.59 -118.08,112.17l-11.81 0 0 -123.98c0,-3.54 2.36,-5.9 5.9,-5.9l247.96 0c3.54,0 5.9,2.36 5.9,5.9l0 123.98z"/>
    <g>
     <path class="fil1" d="M79.97 55.07l-35.42 0c-3.54,0 -5.9,-2.36 -5.9,-5.9 0,-3.54 2.36,-5.9 5.9,-5.9l35.42 0c3.54,0 5.9,2.36 5.9,5.9 0,3.54 -2.36,5.9 -5.9,5.9z"/>
    </g>
    <g>
     <path class="fil1" d="M56.35 78.68l-11.81 0c-3.54,0 -5.9,-2.36 -5.9,-5.9 0,-3.54 2.36,-5.9 5.9,-5.9l11.81 0c3.54,0 5.9,2.36 5.9,5.9 0,3.54 -2.36,5.9 -5.9,5.9z"/>
    </g>
    <g>
     <path class="fil1" d="M268.89 55.07l-35.42 0c-3.54,0 -5.9,-2.36 -5.9,-5.9 0,-3.54 2.36,-5.9 5.9,-5.9l35.42 0c3.54,0 5.9,2.36 5.9,5.9 0,3.54 -2.36,5.9 -5.9,5.9z"/>
    </g>
    <g>
     <path class="fil1" d="M268.89 78.68l-11.81 0c-3.54,0 -5.9,-2.36 -5.9,-5.9 0,-3.54 2.36,-5.9 5.9,-5.9l11.81 0c3.54,0 5.9,2.36 5.9,5.9 0,3.54 -2.36,5.9 -5.9,5.9z"/>
    </g>
   </g>
  </g>
 </g>
</svg>
