<?xml version="1.0" encoding="UTF-8"?>
<!DOCTYPE svg PUBLIC "-//W3C//DTD SVG 1.1//EN" "http://www.w3.org/Graphics/SVG/1.1/DTD/svg11.dtd">
<!-- Creator: CorelDRAW 2021.5 -->
<svg xmlns="http://www.w3.org/2000/svg" xml:space="preserve" width="50.7446mm" height="47.9988mm" version="1.1" style="shape-rendering:geometricPrecision; text-rendering:geometricPrecision; image-rendering:optimizeQuality; fill-rule:evenodd; clip-rule:evenodd"
viewBox="0 0 436.85 413.21"
 xmlns:xlink="http://www.w3.org/1999/xlink"
 xmlns:xodm="http://www.corel.com/coreldraw/odm/2003">
 <defs>
  <style type="text/css">
   <![CDATA[
    .fil1 {fill:black}
    .fil0 {fill:#FF9045}
   ]]>
  </style>
 </defs>
 <g id="Layer_x0020_1">
  <metadata id="CorelCorpID_0Corel-Layer"/>
  <g id="_105553515355968">
   <rect class="fil0" x="0" width="436.85" height="219.18"/>
   <path class="fil1" d="M66.57 119.28l-25.42 -12.71c-3.65,-1.83 -5.96,-5.56 -5.96,-9.65 0,-4.08 2.31,-7.82 5.96,-9.65l25.42 -12.71 0 -16.5c0,-9.61 7.82,-17.43 17.43,-17.43l256.12 0c9.61,0 17.43,7.82 17.43,17.43l0 130.45c0,5.96 -4.83,10.79 -10.79,10.79 -5.96,0 -10.79,-4.83 -10.79,-10.79l0 -126.31 -247.84 0 0 19.02c0,4.09 -2.31,7.82 -5.96,9.65l-12.09 6.05 12.09 6.05c3.65,1.83 5.96,5.56 5.96,9.65l0 88.24 14.42 0.04c5.95,0.02 10.77,4.86 10.75,10.82 -0.02,5.95 -4.86,10.77 -10.82,10.75l-18.53 -0.06c-9.59,-0.03 -17.4,-7.83 -17.4,-17.43l0 -85.7zm258.8 259.98c0,5.96 -4.83,10.79 -10.79,10.79 -5.95,0 -10.79,-4.83 -10.79,-10.79l0 -144.42c0,-5.95 4.83,-10.79 10.79,-10.79 5.95,0 10.79,4.83 10.79,10.79l0 144.42zm60.91 -114.95c3.65,5.58 5.62,12.12 5.62,18.9 0,11.7 -5.91,22.44 -15.39,28.78 3.65,5.58 5.62,12.12 5.62,18.9 0,11.7 -5.91,22.44 -15.39,28.78 3.65,5.58 5.62,12.12 5.62,18.9 0,19.1 -15.53,34.63 -34.63,34.63l-142.97 0c-5.95,0 -10.79,-4.83 -10.79,-10.79 0,-5.95 4.83,-10.79 10.79,-10.79l142.97 0c7.2,0 13.06,-5.86 13.06,-13.06 0,-7.2 -5.86,-13.06 -13.06,-13.06 -5.96,0 -10.79,-4.83 -10.79,-10.79 0,-5.96 4.83,-10.79 10.79,-10.79l9.76 0c7.2,0 13.06,-5.86 13.06,-13.06 0,-7.2 -5.86,-13.06 -13.06,-13.06l-9.76 0c-5.96,0 -10.79,-4.83 -10.79,-10.79 0,-5.96 4.83,-10.79 10.79,-10.79l19.53 0c7.2,0 13.06,-5.86 13.06,-13.06 0,-7.2 -5.86,-13.06 -13.06,-13.06l-19.53 0c-5.96,0 -10.79,-4.83 -10.79,-10.79 0,-5.96 4.83,-10.79 10.79,-10.79l29.3 0c7.2,0 13.06,-5.86 13.06,-13.06 0,-7.2 -5.86,-13.06 -13.06,-13.06l-82.67 0c-3.96,0 -7.6,-2.17 -9.48,-5.64 -1.88,-3.47 -1.71,-7.72 0.45,-11.03 15.75,-24.17 22.39,-54.76 22.39,-83.33 0,-7.2 -5.86,-13.06 -13.06,-13.06 -7.2,0 -13.06,5.86 -13.06,13.06 0,51.19 -38.83,93.99 -89.22,99.41l0 180.54c0,5.96 -4.83,10.79 -10.79,10.79l-45.92 0c-5.96,0 -10.79,-4.83 -10.79,-10.79l0 -190.74c0,-5.95 4.83,-10.79 10.79,-10.79l45.92 0c43.24,0 78.43,-35.19 78.43,-78.43 0,-19.1 15.53,-34.63 34.63,-34.63 19.1,0 34.63,15.53 34.63,34.63 0,26.61 -5.14,54.19 -16.61,78.43l64.35 -0c19.1,0 34.63,15.53 34.63,34.63 0,11.7 -5.91,22.44 -15.39,28.79zm-225.46 127.33l0 -169.17 -24.35 0 0 169.17 24.35 0z"/>
  </g>
 </g>
</svg>
