<?xml version="1.0" encoding="UTF-8"?>
<!DOCTYPE svg PUBLIC "-//W3C//DTD SVG 1.1//EN" "http://www.w3.org/Graphics/SVG/1.1/DTD/svg11.dtd">
<!-- Creator: CorelDRAW 2021.5 -->
<svg xmlns="http://www.w3.org/2000/svg" xml:space="preserve" width="50.8437mm" height="44.6808mm" version="1.1" style="shape-rendering:geometricPrecision; text-rendering:geometricPrecision; image-rendering:optimizeQuality; fill-rule:evenodd; clip-rule:evenodd"
viewBox="0 0 276.89 243.33"
 xmlns:xlink="http://www.w3.org/1999/xlink"
 xmlns:xodm="http://www.corel.com/coreldraw/odm/2003">
 <defs>
  <style type="text/css">
   <![CDATA[
    .fil1 {fill:black}
    .fil0 {fill:#79A729}
   ]]>
  </style>
 </defs>
 <g id="Layer_x0020_1">
  <metadata id="CorelCorpID_0Corel-Layer"/>
  <g id="_105553515266784">
   <polygon class="fil0" points="-0,-0 -0,243.33 276.89,243.33 "/>
   <path class="fil1" d="M85.77 222.31l8.12 0 0 -39.34 0.07 -2.38 0.01 -0.12c1.28,-23.56 20.89,-42.06 44.49,-41.95l0.14 0 2.35 0.07 0.12 0.01c23.56,1.37 41.95,20.9 41.95,44.49l0 39.22 8.12 0 0 -39.22c0,-29.09 -23.59,-52.68 -52.68,-52.68 -29.09,0 -52.68,23.59 -52.68,52.68l0 39.22zm-60.78 0l8.12 0 0 -21.19 0.1 -2.14 0.02 -0.19c1.23,-12.89 11.69,-22.97 24.58,-23.76 0.27,-2.74 0.68,-5.47 1.23,-8.16 -18.84,0.21 -34.05,15.55 -34.05,34.44l0 20.99zm192.86 -55.43c0.55,2.7 0.96,5.44 1.23,8.18l0.71 0.03 0.19 0.02c13.5,1.28 23.81,12.65 23.81,26.21l0 20.99 8.12 0 0 -20.99c0,-18.89 -15.21,-34.23 -34.05,-34.44zm-158.41 -72.93c-12.31,0 -22.29,9.98 -22.29,22.29 0,12.31 9.98,22.29 22.29,22.29 12.31,0 22.29,-9.98 22.29,-22.29 0,-12.31 -9.98,-22.29 -22.29,-22.29zm0 8.12c7.83,0 14.17,6.35 14.17,14.17 0,7.83 -6.35,14.17 -14.17,14.17 -7.82,0 -14.17,-6.35 -14.17,-14.17 0,-7.83 6.35,-14.17 14.17,-14.17zm158.02 -8.12c-12.31,0 -22.29,9.98 -22.29,22.29 0,12.31 9.98,22.29 22.29,22.29 12.31,0 22.29,-9.98 22.29,-22.29 0,-12.31 -9.98,-22.29 -22.29,-22.29zm0 8.12c7.83,0 14.17,6.35 14.17,14.17 0,7.83 -6.35,14.17 -14.17,14.17 -7.83,0 -14.17,-6.35 -14.17,-14.17 0,-7.82 6.35,-14.17 14.17,-14.17zm-79.01 -81.05c-22.38,0 -40.52,18.15 -40.52,40.52 0,22.38 18.15,40.52 40.52,40.52 22.38,0 40.52,-18.15 40.52,-40.52 0,-22.38 -18.15,-40.52 -40.52,-40.52zm0 8.12c17.89,0 32.41,14.51 32.41,32.41 0,17.89 -14.51,32.41 -32.41,32.41 -17.89,0 -32.41,-14.51 -32.41,-32.41 0,-17.89 14.51,-32.41 32.41,-32.41z"/>
  </g>
 </g>
</svg>
