<?xml version="1.0" encoding="UTF-8"?>
<!DOCTYPE svg PUBLIC "-//W3C//DTD SVG 1.1//EN" "http://www.w3.org/Graphics/SVG/1.1/DTD/svg11.dtd">
<!-- Creator: CorelDRAW 2021.5 -->
<svg xmlns="http://www.w3.org/2000/svg" xml:space="preserve" width="50.0772mm" height="44.1258mm" version="1.1" style="shape-rendering:geometricPrecision; text-rendering:geometricPrecision; image-rendering:optimizeQuality; fill-rule:evenodd; clip-rule:evenodd"
viewBox="0 0 268.82 236.88"
 xmlns:xlink="http://www.w3.org/1999/xlink"
 xmlns:xodm="http://www.corel.com/coreldraw/odm/2003">
 <defs>
  <style type="text/css">
   <![CDATA[
    .fil0 {fill:#FBCC24}
    .fil1 {fill:black;fill-rule:nonzero}
   ]]>
  </style>
 </defs>
 <g id="Layer_x0020_1">
  <metadata id="CorelCorpID_0Corel-Layer"/>
  <g id="_105553505450624">
   <path class="fil0" d="M268.82 0l-268.82 0 0 84.61c89.61,83.29 179.22,80.92 268.82,0l0 -84.61z"/>
   <g>
    <g>
     <path class="fil1" d="M134.41 160.41c-2.93,0 -5.3,2.37 -5.3,5.3 0,2.93 2.37,5.3 5.3,5.3 2.93,0 5.3,-2.38 5.3,-5.3 0,-2.93 -2.37,-5.3 -5.3,-5.3z"/>
     <path class="fil1" d="M250.36 15.83l-231.9 0c-2.72,0 -4.93,2.21 -4.93,4.93l0 161.57c0,2.72 2.21,4.93 4.93,4.93l86.2 0 -8.63 20.94 -16.22 0c-2.72,0 -4.93,2.21 -4.93,4.93l0 18.8c0,2.73 2.21,4.93 4.93,4.93l109.2 0c2.72,0 4.93,-2.21 4.93,-4.93l0 -18.8c0,-2.72 -2.21,-4.93 -4.93,-4.93l-16.22 -0 -8.63 -20.94 86.2 0c2.72,0 4.93,-2.21 4.93,-4.93l0 -161.57c0,-2.73 -2.21,-4.93 -4.93,-4.93zm-4.93 9.87l0 118.86 -222.04 0 0 -118.86 222.04 0zm-61.35 201.31l-99.34 0 0 -8.93 99.34 0 0 8.93zm-21.96 -18.8l-55.41 0 8.63 -20.94 38.15 0 8.63 20.94zm-138.72 -30.8l0 -22.97 222.04 0 0 22.97 -222.04 0z"/>
     <path class="fil1" d="M173 84.95l0 0 0 0c0,-2.72 -2.21,-4.93 -4.93,-4.93l-5.26 0c-0.3,-1.71 -0.74,-3.38 -1.33,-4.97l4.55 -2.63c2.36,-1.36 3.17,-4.38 1.81,-6.74 -1.36,-2.36 -4.38,-3.17 -6.74,-1.81l-4.56 2.64c-1.1,-1.32 -2.32,-2.53 -3.64,-3.64l2.64 -4.56c1.36,-2.36 0.56,-5.38 -1.8,-6.74 -2.36,-1.36 -5.38,-0.56 -6.74,1.8l-2.63 4.55c-1.6,-0.59 -3.26,-1.03 -4.97,-1.33l0 -5.26c0,-2.72 -2.21,-4.93 -4.93,-4.93 -0.01,0 -0.02,0 -0.04,0 -0.01,0 -0.03,-0 -0.04,-0 -2.72,0 -4.93,2.21 -4.93,4.93l0 5.26c-1.71,0.3 -3.38,0.74 -4.97,1.33l-2.63 -4.55c-1.36,-2.36 -4.38,-3.17 -6.74,-1.8 -2.36,1.36 -3.17,4.38 -1.8,6.74l2.64 4.56c-1.32,1.1 -2.53,2.32 -3.64,3.64l-4.56 -2.64c-2.36,-1.36 -5.38,-0.55 -6.74,1.81 -1.36,2.36 -0.55,5.38 1.81,6.74l4.55 2.63c-0.59,1.6 -1.03,3.26 -1.33,4.97l-5.26 -0c-2.72,-0 -4.93,2.21 -4.93,4.93l0 0 0 0 0 0 0 0c0,2.72 2.21,4.93 4.93,4.93l5.26 -0c0.3,1.71 0.74,3.38 1.33,4.97l-4.55 2.63c-2.36,1.36 -3.17,4.38 -1.81,6.74 1.36,2.36 4.38,3.17 6.74,1.81l4.56 -2.64c1.1,1.32 2.32,2.53 3.64,3.64l-2.64 4.56c-1.36,2.36 -0.56,5.38 1.8,6.74 2.36,1.36 5.38,0.56 6.74,-1.8l2.63 -4.55c1.6,0.59 3.26,1.03 4.97,1.33l0 5.26c0,2.72 2.21,4.93 4.93,4.93 0.01,0 0.03,-0 0.04,-0 0.01,0 0.02,0 0.04,0 2.73,0 4.93,-2.21 4.93,-4.93l0 -5.26c1.71,-0.3 3.38,-0.74 4.97,-1.33l2.63 4.55c1.36,2.36 4.38,3.17 6.74,1.8 2.36,-1.36 3.17,-4.38 1.8,-6.74l-2.64 -4.56c1.32,-1.1 2.53,-2.32 3.64,-3.64l4.56 2.64c2.36,1.36 5.38,0.55 6.74,-1.81 1.36,-2.36 0.55,-5.38 -1.8,-6.74l-4.55 -2.63c0.59,-1.6 1.03,-3.26 1.33,-4.97l5.26 0c2.72,0 4.93,-2.21 4.93,-4.93l0 0 0 0zm-38.55 18.92c-0.01,0 -0.02,-0 -0.04,-0 -0.01,0 -0.03,0 -0.04,0 -10.43,0 -18.92,-8.49 -18.92,-18.92 0,-10.43 8.49,-18.92 18.92,-18.92 0.01,0 0.03,0 0.04,0 0.01,0 0.02,-0 0.04,-0 10.43,0 18.92,8.49 18.92,18.92 0,10.43 -8.49,18.92 -18.92,18.92z"/>
    </g>
   </g>
  </g>
 </g>
</svg>
