<svg xmlns="http://www.w3.org/2000/svg" width="67.333" height="63.639" viewBox="0 0 67.333 63.639"><defs><style>.a{fill:#fff;}</style></defs><path class="a" d="M72.333,24.538A19.46,19.46,0,0,0,39.572,10.255l-.906.846-.9-.846A19.461,19.461,0,0,0,5,24.538a19.61,19.61,0,0,0,6.353,14.412L31.036,58.693h-19.8a4.973,4.973,0,0,0,0,9.946H66.1a4.973,4.973,0,0,0,0-9.946H46.309L65.982,38.951A19.614,19.614,0,0,0,72.333,24.538ZM58.77,31.164l-20.1,20.161L18.549,31.151A8.815,8.815,0,0,1,15.6,24.538a8.879,8.879,0,0,1,16.261-4.968,8.192,8.192,0,0,0,13.619,0A8.888,8.888,0,1,1,58.77,31.164Z" transform="translate(-5 -5)"/></svg>