<svg xmlns="http://www.w3.org/2000/svg" width="76" height="76" viewBox="0 0 76 76">
  <g id="Group_337" data-name="Group 337" transform="translate(-1106 -1261)">
    <g id="Ellipse_20" data-name="Ellipse 20" transform="translate(1106 1261)" fill="none" stroke="#fff" stroke-width="2">
      <circle cx="38" cy="38" r="38" stroke="none"/>
      <circle cx="38" cy="38" r="37" fill="none"/>
    </g>
    <g id="Group_313" data-name="Group 313" transform="translate(1124 1279)">
      <g id="Group_312" data-name="Group 312">
        <g id="Group_311" data-name="Group 311">
          <circle id="Ellipse_28" data-name="Ellipse 28" cx="0.903" cy="0.903" r="0.903" transform="translate(3.614 3.614)" fill="#fff"/>
          <circle id="Ellipse_29" data-name="Ellipse 29" cx="0.903" cy="0.903" r="0.903" transform="translate(7.227 3.614)" fill="#fff"/>
          <circle id="Ellipse_30" data-name="Ellipse 30" cx="0.903" cy="0.903" r="0.903" transform="translate(10.841 3.614)" fill="#fff"/>
          <path id="Path_369" data-name="Path 369" d="M36.136,0H3.614A3.618,3.618,0,0,0,0,3.614V36.136A3.618,3.618,0,0,0,3.614,39.75H36.136a3.618,3.618,0,0,0,3.614-3.614V3.614A3.618,3.618,0,0,0,36.136,0Zm1.807,36.136a1.809,1.809,0,0,1-1.807,1.807H3.614a1.809,1.809,0,0,1-1.807-1.807V9.034H37.943Zm0-28.909H1.807V3.614A1.809,1.809,0,0,1,3.614,1.807H36.136a1.809,1.809,0,0,1,1.807,1.807V7.227Z" fill="#fff"/>
          <path id="Path_370" data-name="Path 370" d="M118.017,172.62l1.731.433-.919,1.53a.9.9,0,0,0,.136,1.1l2.557,2.555a.906.906,0,0,0,1.1.136l1.528-.917.432,1.731a.9.9,0,0,0,.877.684h3.614a.9.9,0,0,0,.877-.684l.432-1.731,1.528.917a.906.906,0,0,0,1.1-.136l2.555-2.555a.9.9,0,0,0,.136-1.1l-.917-1.53,1.731-.433a.9.9,0,0,0,.685-.876v-3.614a.9.9,0,0,0-.685-.876l-1.731-.433.917-1.53a.9.9,0,0,0-.136-1.1l-2.555-2.555a.9.9,0,0,0-1.1-.136l-1.528.917-.432-1.731a.9.9,0,0,0-.877-.684h-3.614a.9.9,0,0,0-.877.684l-.432,1.731-1.528-.917a.9.9,0,0,0-1.1.136l-2.557,2.555a.9.9,0,0,0-.136,1.1l.919,1.53-1.731.433a.9.9,0,0,0-.685.876v3.614A.9.9,0,0,0,118.017,172.62Zm1.122-3.785,1.551-.388a.9.9,0,0,0,.635-.581,5.734,5.734,0,0,1,.275-.673.907.907,0,0,0-.039-.86l-.821-1.367,1.558-1.558,1.366.821a.907.907,0,0,0,.861.038,6.1,6.1,0,0,1,.676-.275.9.9,0,0,0,.579-.633l.388-1.552h2.2l.388,1.552a.9.9,0,0,0,.579.633,6.1,6.1,0,0,1,.676.275.914.914,0,0,0,.861-.038l1.366-.82,1.556,1.557-.819,1.367a.907.907,0,0,0-.039.86,6.136,6.136,0,0,1,.277.678.9.9,0,0,0,.633.575l1.551.388v2.2l-1.551.388a.9.9,0,0,0-.633.575,6.123,6.123,0,0,1-.277.678.907.907,0,0,0,.039.86l.819,1.367-1.556,1.557-1.366-.82a.9.9,0,0,0-.861-.038,6.1,6.1,0,0,1-.676.275.9.9,0,0,0-.579.633l-.388,1.552h-2.2l-.388-1.552a.9.9,0,0,0-.579-.633,6.1,6.1,0,0,1-.676-.275.9.9,0,0,0-.861.038l-1.366.821-1.558-1.558.821-1.367a.907.907,0,0,0,.039-.86,5.718,5.718,0,0,1-.275-.673.9.9,0,0,0-.635-.581l-1.551-.388Z" transform="translate(-107.395 -146.449)" fill="#fff"/>
          <path id="Path_371" data-name="Path 371" d="M185.851,233.034a4.517,4.517,0,1,0-4.517-4.517A4.522,4.522,0,0,0,185.851,233.034Zm0-7.227a2.71,2.71,0,1,1-2.71,2.71A2.713,2.713,0,0,1,185.851,225.807Z" transform="translate(-165.976 -205.028)" fill="#fff"/>
        </g>
      </g>
    </g>
  </g>
</svg>
