<svg xmlns="http://www.w3.org/2000/svg" width="76" height="76" viewBox="0 0 76 76">
  <g id="Group_306" data-name="Group 306" transform="translate(-378 -1261)">
    <g id="Ellipse_17" data-name="Ellipse 17" transform="translate(378 1261)" fill="none" stroke="#fff" stroke-width="2">
      <circle cx="38" cy="38" r="38" stroke="none"/>
      <circle cx="38" cy="38" r="37" fill="none"/>
    </g>
    <g id="Group_305" data-name="Group 305">
      <path id="Path_363" data-name="Path 363" d="M431.522,88.981a2.234,2.234,0,0,1,3.161,0l2.8,2.8V79.957a2.235,2.235,0,1,1,4.47,0V91.93l.974-.974,1.975-1.975a2.233,2.233,0,0,1,3.778,1.975v0c-.009.05-.025.1-.038.148a2.073,2.073,0,0,1-.068.228c-.019.05-.04.1-.062.148a2.208,2.208,0,0,1-.12.227c-.024.039-.045.078-.072.116a2.26,2.26,0,0,1-.258.315l-3.181,3.181-3.492,3.492a2.227,2.227,0,0,1-1.58.653h-.033a2.227,2.227,0,0,1-1.58-.653L434.7,95.321l-3.181-3.181a2.19,2.19,0,0,1-.257-.315c-.027-.039-.049-.078-.073-.118a2.341,2.341,0,0,1-.118-.225c-.023-.05-.045-.1-.063-.151-.027-.073-.047-.147-.066-.222-.013-.052-.03-.1-.039-.154A2.221,2.221,0,0,1,431.522,88.981Z" transform="translate(-23.57 1202.279)" fill="#fff"/>
      <path id="Path_364" data-name="Path 364" d="M425.762,161.148h0c0,3.017-2.958,5.381-6.735,5.381H398.164c-3.776,0-6.735-2.363-6.735-5.381V146.626c0-2.55,2.117-4.627,5.052-5.211a5.466,5.466,0,0,0,1.586,3.332l.865.865h-.766c-1.529,0-2.369.762-2.369,1.014v14.522c0,.253.84,1.014,2.369,1.014h20.863c1.529,0,2.369-.762,2.369-1.014V146.626c0-.252-.84-1.014-2.369-1.014h-.657l.865-.865a5.462,5.462,0,0,0,1.582-3.31c2.879.613,4.945,2.671,4.945,5.19Z" transform="translate(7.571 1151.99)" fill="#fff"/>
    </g>
  </g>
</svg>
