<svg xmlns="http://www.w3.org/2000/svg" width="76" height="76" viewBox="0 0 76 76">
  <g id="Group_283" data-name="Group 283" transform="translate(-139 -1956)">
    <g id="Group_224" data-name="Group 224" transform="translate(293.324 1997)">
      <path id="Path_215" data-name="Path 215" d="M-79.881-27.643h-4.357v-2.178A2.178,2.178,0,0,1-82.06-32h0a2.178,2.178,0,0,1,2.179,2.179Z" transform="translate(-34.626)" fill="#fff"/>
      <path id="Path_216" data-name="Path 216" d="M-53.786,52.393c-2.546-1.349-5.893-1.179-7.071-2.357a4.082,4.082,0,0,1-1.005-2.616,13.432,13.432,0,0,0,2.185-.734c3.535.994,4.758-1.319,3.534-2.543-1.177-1.179-.568-7.151,0-9.429,0-4.577-2.478-5.057-4.257-5.224-2.815-2.592-6.5-.844-8.809.509-2.287,1.343-2.044,3.5-2.242,5.651.058,0,.117-.008.175-.008A7.078,7.078,0,0,1-64.2,43.027,14.324,14.324,0,0,1-66.3,50.3a13.545,13.545,0,0,0,2.116.474c2.261,0,3.85,2.119,3.85,5.151h7.727C-52.609,54.75-52.88,52.873-53.786,52.393Z" transform="translate(-42.183 -35.553)" fill="#fff"/>
      <g id="Group_223" data-name="Group 223" transform="translate(-137.293 -12.818)">
        <path id="Path_217" data-name="Path 217" d="M-58.858,82.312" transform="translate(87.666 -54.744)" fill="#fff"/>
        <path id="Path_218" data-name="Path 218" d="M-108.281,28.4l.075-.819c.027-.29.045-.579.062-.866.114-1.86.317-4.611,3-6.462-.521-2.523-1.642-3.7-3.05-3.829-3.075-2.834-8.286-1.115-10.81.364-2.831,1.662-2.114,4.461-2.568,7.107-2.4-.094-.087,7.456,1.391,5.977a7.6,7.6,0,0,0,3.63,5.471,9.034,9.034,0,0,1-1.157,3.737c-1.037,1.943-6.44,2.576-9.016,3.864-1.644.821-2.576,5.151-2.576,5.151h12.874a5.591,5.591,0,0,1,1.167-3.968,3.613,3.613,0,0,1,2.7-1.184,15.292,15.292,0,0,0,2.32-.535c-1.17-1.368-2.32-3.383-2.32-7.192A7.11,7.11,0,0,1-108.281,28.4Z" transform="translate(129.299 -14.903)" fill="#fff"/>
      </g>
      <path id="Path_219" data-name="Path 219" d="M-76.074,67.9a29.217,29.217,0,0,1-5.151-1.288,14.293,14.293,0,0,1,0-2.576c1.287,0,2.576-3.863,2.576-6.462a4.518,4.518,0,1,0-9.015.023c0,3.863,1.287,5.151,2.576,6.439v2.576A29.21,29.21,0,0,1-90.241,67.9c-1.532,0-1.287,2.576-1.287,2.576h16.743C-74.786,69.4-75.139,67.9-76.074,67.9Z" transform="translate(-30.309 -50.096)" fill="#fff"/>
      <path id="Path_220" data-name="Path 220" d="M-79.881-26.416h-4.357v-3.405A2.178,2.178,0,0,1-82.06-32h0a2.178,2.178,0,0,1,2.179,2.179Z" transform="translate(-34.626)" fill="#fff"/>
      <path id="Path_221" data-name="Path 221" d="M-116.686-21.013c-13.176,0-24.85,10.962-26.138,24.1H-132.4a13.238,13.238,0,0,1,.28-1.773,17.709,17.709,0,0,1,.384-2.743A7,7,0,0,1-128.3-6.625a16.5,16.5,0,0,1,7.805-2.258A8.954,8.954,0,0,1-115.038-7.2c1.46.393,3.337,1.6,4.25,4.928a11.737,11.737,0,0,1,4.848-1.21,7.192,7.192,0,0,1,4.383,1.453c2.433.413,5.735,3.567,5.735,5.112h5.274C-91.863-9.928-103.532-21.013-116.686-21.013Z" transform="translate(0 -6.494)" fill="#fff"/>
    </g>
    <g id="Ellipse_20" data-name="Ellipse 20" transform="translate(139 1956)" fill="none" stroke="#fff" stroke-width="2">
      <circle cx="38" cy="38" r="38" stroke="none"/>
      <circle cx="38" cy="38" r="37" fill="none"/>
    </g>
  </g>
</svg>
