<svg xmlns="http://www.w3.org/2000/svg" width="76" height="76" viewBox="0 0 76 76">
  <g id="Group_288" data-name="Group 288" transform="translate(-330 -719)">
    <g id="Group_289" data-name="Group 289" transform="translate(0 -12)">
      <g id="Ellipse_17" data-name="Ellipse 17" transform="translate(330 731)" fill="none" stroke="#fff" stroke-width="2">
        <circle cx="38" cy="38" r="38" stroke="none"/>
        <circle cx="38" cy="38" r="37" fill="none"/>
      </g>
      <g id="Group_287" data-name="Group 287" transform="translate(37)">
        <path id="Subtraction_1" data-name="Subtraction 1" d="M259.542-13311.8H236v-38.2H272.73v22.749a12.092,12.092,0,0,0-1.729-.124l-.254,0-7.522-6.895-6.744,7.384,3.531,3.532a.738.738,0,0,1,0,1.042.729.729,0,0,1-.516.214.749.749,0,0,1-.523-.214l-7.569-7.572-10.52,9.268H260.2a11.9,11.9,0,0,0-.6,1.471H237.47v5.873h21.714a11.972,11.972,0,0,0,.357,1.467Zm-22.071-36.728v27.916h1.189l12.3-10.825a.728.728,0,0,1,.482-.182.743.743,0,0,1,.519.211l3.484,3.488,7.2-7.88a.755.755,0,0,1,.509-.241h.013a.77.77,0,0,1,.516.194l7.582,6.952v-19.634H237.47Zm8.081,16.267a4.1,4.1,0,0,1-4.094-4.091,4.1,4.1,0,0,1,4.094-4.095,4.1,4.1,0,0,1,4.087,4.095A4.094,4.094,0,0,1,245.551-13332.265Zm0-6.718a2.628,2.628,0,0,0-2.623,2.627,2.623,2.623,0,0,0,2.623,2.616,2.621,2.621,0,0,0,2.62-2.616A2.627,2.627,0,0,0,245.551-13338.982Z" transform="translate(74.999 14099.378)" fill="#fff" stroke="#fff" stroke-miterlimit="10" stroke-width="1"/>
        <path id="Union_1" data-name="Union 1" d="M241.179-13336.19v-5.18H236v-3.451h5.18v-5.18h3.451v5.18h5.18v3.451h-5.18v5.18Z" transform="translate(103.288 14126.79)" fill="#fff" stroke="rgba(0,0,0,0)" stroke-miterlimit="10" stroke-width="1"/>
        <g id="Ellipse_24" data-name="Ellipse 24" transform="translate(333 771)" fill="none" stroke="#fff" stroke-width="2">
          <circle cx="12.5" cy="12.5" r="12.5" stroke="none"/>
          <circle cx="12.5" cy="12.5" r="11.5" fill="none"/>
        </g>
      </g>
    </g>
  </g>
</svg>
