<svg xmlns="http://www.w3.org/2000/svg" width="200.131" height="41.195" viewBox="0 0 200.131 41.195">
  <g id="Group_257" data-name="Group 257" transform="translate(-15 535)">
    <path id="Path_303" data-name="Path 303" d="M305.738-353.724l-2.182-3.165v3.165H302v-6.84h1.559v2.971l2.085-2.971h1.773l-2.3,3.332,2.4,3.508Z" transform="translate(-230.697 -140.218)" fill="#fff"/>
    <path id="Path_304" data-name="Path 304" d="M341.968-355.228v1.5h-4.287v-6.84h4.238v1.505H339.24v1.133h2.436v1.485H339.24v1.212Z" transform="translate(-259.381 -140.218)" fill="#fff"/>
    <path id="Path_305" data-name="Path 305" d="M373.908-355.228v1.5h-4.287v-6.84h4.238v1.505H371.18v1.133h2.436v1.485H371.18v1.212Z" transform="translate(-285.056 -140.218)" fill="#fff"/>
    <path id="Path_306" data-name="Path 306" d="M406.531-358.218a2.347,2.347,0,0,1-2.387,2.345h-1.023v2.149h-1.559v-6.84h2.582a2.347,2.347,0,0,1,2.387,2.345m-1.559,0a.835.835,0,0,0-.828-.88h-1.023v1.759h1.023a.835.835,0,0,0,.828-.879" transform="translate(-310.731 -140.218)" fill="#fff"/>
    <rect id="Rectangle_359" data-name="Rectangle 359" width="1.559" height="6.84" transform="translate(97.433 -500.781)" fill="#fff"/>
    <path id="Path_307" data-name="Path 307" d="M459.6-360.564v6.84h-1.169l-2.631-3.713v3.713h-1.559v-6.84h1.169l2.63,3.713v-3.713Z" transform="translate(-353.078 -140.217)" fill="#fff"/>
    <path id="Path_308" data-name="Path 308" d="M498.022-357.509a3.192,3.192,0,0,1-3.361,3.361,3.546,3.546,0,0,1-3.682-3.547,3.542,3.542,0,0,1,3.575-3.567,3.486,3.486,0,0,1,2.981,1.564l-1.325.762a1.949,1.949,0,0,0-1.666-.8,1.964,1.964,0,0,0-2.007,2.052,1.969,1.969,0,0,0,2.143,2.013,1.694,1.694,0,0,0,1.744-1.055H494.6V-358.1h3.419Z" transform="translate(-382.606 -139.657)" fill="#fff"/>
    <path id="Path_309" data-name="Path 309" d="M559.927-353.724h-1.559V-357.7l-1.763,2.9h-.175l-1.763-2.9v3.977h-1.559v-6.84h1.559l1.851,3.039,1.851-3.039h1.559Z" transform="translate(-432.547 -140.218)" fill="#fff"/>
    <path id="Path_310" data-name="Path 310" d="M603.345-355.228v1.5h-4.287v-6.84H603.3v1.505h-2.679v1.133h2.436v1.485h-2.436v1.212Z" transform="translate(-469.484 -140.218)" fill="#fff"/>
    <path id="Path_311" data-name="Path 311" d="M637.819-353.724h-1.559V-357.7l-1.764,2.9h-.175l-1.763-2.9v3.977H631v-6.84h1.559l1.851,3.039,1.851-3.039h1.559Z" transform="translate(-495.16 -140.218)" fill="#fff"/>
    <path id="Path_312" data-name="Path 312" d="M675.21-357.7a3.521,3.521,0,0,1,3.546-3.557A3.521,3.521,0,0,1,682.3-357.7a3.521,3.521,0,0,1-3.547,3.557,3.521,3.521,0,0,1-3.546-3.557m5.534,0a1.943,1.943,0,0,0-1.988-2.033,1.943,1.943,0,0,0-1.987,2.033,1.943,1.943,0,0,0,1.987,2.033,1.943,1.943,0,0,0,1.988-2.033" transform="translate(-530.698 -139.658)" fill="#fff"/>
    <path id="Path_313" data-name="Path 313" d="M723-355.971h-.74v2.247H720.7v-6.84h2.728a2.336,2.336,0,0,1,2.338,2.345,2.254,2.254,0,0,1-1.257,1.983l1.452,2.511h-1.676Zm-.74-1.368h1.169a.827.827,0,0,0,.78-.879.827.827,0,0,0-.78-.88H722.26Z" transform="translate(-567.265 -140.218)" fill="#fff"/>
    <rect id="Rectangle_360" data-name="Rectangle 360" width="1.559" height="6.84" transform="translate(160.405 -500.781)" fill="#fff"/>
    <path id="Path_314" data-name="Path 314" d="M779.537-355.228v1.5H775.25v-6.84h4.238v1.505h-2.679v1.133h2.436v1.485h-2.436v1.212Z" transform="translate(-611.113 -140.218)" fill="#fff"/>
    <path id="Path_315" data-name="Path 315" d="M804.807-355.838l1.345-.782a1.428,1.428,0,0,0,1.432.948c.74,0,.925-.293.925-.557,0-.42-.39-.586-1.413-.87s-2.007-.772-2.007-2.081a2.136,2.136,0,0,1,2.289-2.082,2.645,2.645,0,0,1,2.494,1.544l-1.315.772a1.2,1.2,0,0,0-1.179-.792c-.487,0-.731.244-.731.518,0,.312.165.527,1.227.85,1.033.312,2.192.674,2.192,2.12,0,1.319-1.052,2.1-2.533,2.1a2.685,2.685,0,0,1-2.728-1.69" transform="translate(-634.872 -139.657)" fill="#fff"/>
    <path id="Path_316" data-name="Path 316" d="M858.953-354.8H856.42l-.341,1.075h-1.7l2.319-6.839h1.988L861-353.724h-1.7Zm-.468-1.465-.8-2.511-.8,2.511Z" transform="translate(-674.715 -140.218)" fill="#fff"/>
    <path id="Path_317" data-name="Path 317" d="M899.716-355.228v1.5h-3.995v-6.84h1.559v5.335Z" transform="translate(-707.951 -140.218)" fill="#fff"/>
    <rect id="Rectangle_361" data-name="Rectangle 361" width="1.559" height="6.84" transform="translate(193.294 -500.781)" fill="#fff"/>
    <path id="Path_318" data-name="Path 318" d="M939.324-360.564h1.705l1.51,5.032,1.51-5.032h1.7l-2.221,6.84h-1.987Z" transform="translate(-743.001 -140.217)" fill="#fff"/>
    <path id="Path_319" data-name="Path 319" d="M983.968-355.228v1.5h-4.287v-6.84h4.238v1.505H981.24v1.133h2.436v1.485H981.24v1.212Z" transform="translate(-775.441 -140.218)" fill="#fff"/>
    <path id="Path_320" data-name="Path 320" d="M319.664-527.377a2.917,2.917,0,0,0-4.134,0l-7.688,7.71V-525.3a2.927,2.927,0,0,0-2.923-2.931A2.927,2.927,0,0,0,302-525.3v18.266a2.927,2.927,0,0,0,2.923,2.931,2.927,2.927,0,0,0,2.923-2.931v-5.637l7.688,7.71a2.909,2.909,0,0,0,2.067.859,2.909,2.909,0,0,0,2.067-.859,2.937,2.937,0,0,0,0-4.145l-7.04-7.06,7.04-7.061a2.937,2.937,0,0,0,0-4.145" transform="translate(-230.696 -5.437)" fill="#fff"/>
    <path id="Path_321" data-name="Path 321" d="M442.594-523a2.6,2.6,0,0,0,2.6-2.606,2.6,2.6,0,0,0-2.6-2.606H430.847a2.6,2.6,0,0,0-2.6,2.606v18.936a2.6,2.6,0,0,0,2.6,2.605h11.747a2.6,2.6,0,0,0,2.6-2.605,2.6,2.6,0,0,0-2.6-2.606h-8.5v-4.257h7.334a2.6,2.6,0,0,0,2.6-2.606,2.6,2.6,0,0,0-2.6-2.605H434.1V-523Z" transform="translate(-332.182 -5.455)" fill="#fff"/>
    <path id="Path_322" data-name="Path 322" d="M674.947-528.354h-7.058c-.015,0-.029,0-.044,0a2.927,2.927,0,0,0-2.923,2.931v18.266a2.927,2.927,0,0,0,2.923,2.931,2.927,2.927,0,0,0,2.923-2.931v-2.809h4.179a9.189,9.189,0,0,0,9.166-9.192,9.189,9.189,0,0,0-9.166-9.192m-.4,13.173h-3.78v-7.962h3.78a3.98,3.98,0,0,1,3.969,3.981,3.98,3.98,0,0,1-3.969,3.981" transform="translate(-522.428 -5.338)" fill="#fff"/>
    <path id="Path_323" data-name="Path 323" d="M560.837-523a2.6,2.6,0,0,0,2.6-2.606,2.6,2.6,0,0,0-2.6-2.606H549.09a2.6,2.6,0,0,0-2.6,2.606v18.936a2.6,2.6,0,0,0,2.6,2.605h11.747a2.6,2.6,0,0,0,2.6-2.605,2.6,2.6,0,0,0-2.6-2.606h-8.5v-4.257h7.334a2.6,2.6,0,0,0,2.6-2.606,2.6,2.6,0,0,0-2.6-2.605H552.34V-523Z" transform="translate(-427.23 -5.455)" fill="#fff"/>
    <path id="Path_324" data-name="Path 324" d="M803.244-523.124a2.6,2.6,0,0,0,2.6-2.606,2.6,2.6,0,0,0-2.6-2.605H791.5a2.6,2.6,0,0,0-2.6,2.605v18.936a2.6,2.6,0,0,0,2.6,2.606h11.747a2.6,2.6,0,0,0,2.6-2.606,2.6,2.6,0,0,0-2.6-2.606h-8.5v-4.257h7.334a2.6,2.6,0,0,0,2.6-2.606,2.6,2.6,0,0,0-2.6-2.606h-7.334v-4.256Z" transform="translate(-622.084 -5.358)" fill="#fff"/>
    <path id="Path_325" data-name="Path 325" d="M922.561-511.724a9.186,9.186,0,0,0,3.8-7.438,9.189,9.189,0,0,0-9.166-9.192h-7.058c-.015,0-.029,0-.044,0a2.927,2.927,0,0,0-2.923,2.931v18.266a2.927,2.927,0,0,0,2.923,2.931,2.927,2.927,0,0,0,2.923-2.931v-2.809h3.031l4.854,4.879a2.909,2.909,0,0,0,2.069.861,2.911,2.911,0,0,0,2.064-.856,2.938,2.938,0,0,0,0-4.146Zm-5.763-3.457h-3.78v-7.962h3.78a3.98,3.98,0,0,1,3.969,3.981,3.98,3.98,0,0,1-3.969,3.981" transform="translate(-717.156 -5.338)" fill="#fff"/>
    <path id="Path_326" data-name="Path 326" d="M58.587-522.352A12.644,12.644,0,0,0,45.976-535a12.539,12.539,0,0,0-8.6,3.4l-.586.548-.585-.548a12.546,12.546,0,0,0-8.6-3.4A12.644,12.644,0,0,0,15-522.352a12.694,12.694,0,0,0,4.112,9.329l12.742,12.78H19.037a3.215,3.215,0,0,0-3.21,3.219,3.215,3.215,0,0,0,3.21,3.219H54.549a3.215,3.215,0,0,0,3.21-3.219,3.215,3.215,0,0,0-3.21-3.219H41.741l12.735-12.78a12.7,12.7,0,0,0,4.111-9.329m-8.78,4.289L36.8-505.012,23.771-518.071a5.706,5.706,0,0,1-1.911-4.281,5.767,5.767,0,0,1,5.752-5.77,5.746,5.746,0,0,1,4.774,2.554,5.3,5.3,0,0,0,4.407,2.354,5.306,5.306,0,0,0,4.409-2.355,5.744,5.744,0,0,1,4.774-2.553,5.767,5.767,0,0,1,5.752,5.77,5.706,5.706,0,0,1-1.921,4.289" fill="#fff"/>
    <path id="Path_327" data-name="Path 327" d="M1006.2-522.423a.331.331,0,0,1-.1-.248v-2.243h-.718c-.219,0-.328-.095-.328-.284s.109-.279.328-.279h2.127q.328,0,.328.279t-.328.284h-.718v2.243a.336.336,0,0,1-.093.248.342.342,0,0,1-.253.093.343.343,0,0,1-.25-.093" transform="translate(-795.841 -7.655)" fill="#fff"/>
    <path id="Path_328" data-name="Path 328" d="M1022.43-525.5a.341.341,0,0,1,.091.246v2.517a.311.311,0,0,1-.085.231.3.3,0,0,1-.221.084.3.3,0,0,1-.217-.084.311.311,0,0,1-.084-.231V-524.3l-.63,1.183a.5.5,0,0,1-.135.168.289.289,0,0,1-.175.053.291.291,0,0,1-.173-.053.483.483,0,0,1-.137-.168l-.629-1.161v1.542a.312.312,0,0,1-.084.228.3.3,0,0,1-.222.086.294.294,0,0,1-.217-.084.311.311,0,0,1-.084-.231v-2.517a.341.341,0,0,1,.091-.246.312.312,0,0,1,.237-.1.349.349,0,0,1,.324.226l.9,1.706.9-1.706a.358.358,0,0,1,.319-.226.313.313,0,0,1,.237.1" transform="translate(-807.39 -7.563)" fill="#fff"/>
  </g>
</svg>
