<svg width="534" height="177" viewBox="0 0 534 177" fill="none" xmlns="http://www.w3.org/2000/svg">
<g clip-path="url(#clip0_906_3622)">
<path d="M44.7391 104.87V123.435L29.2174 134.087L0 117.348L44.7391 104.87V104.87Z" fill="#EE2364"/>
<path d="M107.13 81.1304L108.652 70.7826L126.609 41.8695L171.652 62.5652L153.391 72.3043C142.13 61.9565 124.478 62.5652 114.13 73.8261C111.696 76.5652 109.565 79.913 108.348 83.2608C108.043 82.3478 107.435 81.7391 107.13 81.1304V81.1304Z" fill="#00B1E5"/>
<path d="M87.3479 71.3913L82.1739 71.6956L76.6957 18.7391L96.7826 27.8695L83.087 37.913L85.5218 69.5652L86.4348 40.0434L97.087 32.4348L98 70.7826L102.565 30.6087L114.435 36.0869L108.652 70.7826L107.13 81.1304C102.87 73.5217 94.6522 71.0869 87.3479 71.3913V71.3913ZM110.174 31.2174L102.87 27.8695L111.391 21.7826L110.174 31.2174Z" fill="#EE2364"/>
<path d="M82.1739 71.6956L42.9131 72.913L22.2174 62.8695L60.5652 31.8261L82.1739 71.6956Z" fill="#00B1E5"/>
<path d="M44.7391 142.609L81.8696 137.435L66.6522 155.391L14 151.739L44.7391 128V142.609V142.609Z" fill="#EE2364"/>
<path d="M92.2174 139.261L120.217 136.522L145.174 165.739L70 176.391L81.8696 137.435L92.2174 135.913V139.261Z" fill="#00B1E5"/>
<path d="M163.435 131.956L164.348 129.522L180.783 138.652L143.652 156L125.087 135.913L163.435 131.956V131.956Z" fill="#EE2364"/>
<path d="M124.783 136.217L120.217 136.826L92.2174 139.565V135.913L81.8695 137.435L44.7391 142.609V100.609L27.3913 103.043L8.52173 74.1304L43.2174 72.913L82.1739 71.6956L86.7391 71.0869C94.3478 71.0869 102.565 73.5217 106.826 80.8261C107.435 81.4347 107.739 82.3478 108.043 82.9565C111.391 74.1304 119 67.7391 128.13 65.6087C143.043 62.2608 158.261 71.3913 161.609 86.6087L184.13 79L164.348 129.522L163.435 131.956L124.783 136.217Z" fill="#10044A"/>
<path d="M133 70.7826C120.522 71.6956 111.087 82.3478 112 94.826L143.957 76.8695L141.217 83.5652L112.609 98.7826C112.609 99.3913 112.913 100 113.217 100.609L151.87 83.5652L149.739 89.6521L114.739 104.261C115.043 104.87 115.348 105.174 115.652 105.783L146.696 94.826L144.565 100.609L118.696 109.13C122.957 113.391 128.739 115.826 134.826 115.826C147.304 115.522 157.348 105.478 157.348 93C157.043 80.5217 147 70.4782 134.522 70.4782C133.913 70.4782 133.609 70.4782 133 70.7826V70.7826ZM97.6956 133.478V129.826L70.3043 133.783V121.609L91.6087 93.6087C93.4348 91.4782 92.2174 88.4347 88.8696 89.0434L65.1304 92.3913V134.391L50.2174 136.522V94.5217L30.1304 97.2608L18.2609 79L87.3478 76.8695C103.478 76.2608 108.043 89.6521 101.348 98.7826L85.2174 120.087L97.6956 118.261V113.391L111.696 108.826C117.174 116.435 126 121 135.435 120.696C150.957 120.391 163.13 107.609 162.522 92.0869L175.304 87.8261L159.783 127.087L97.6956 133.478V133.478Z" fill="white"/>
</g>
<g clip-path="url(#clip1_906_3622)">
<path d="M325.043 82.2565C329.609 79.8217 332.652 74.9522 332.348 69.7782C332.652 62.4739 328.696 57.6043 318.348 58.8217L302.522 60.9522V100.517L311.652 99.3V86.5174L315.304 85.9087C318.956 88.9522 322 92.9087 324.13 97.4739L334.783 95.9522C332.652 90.7782 329.304 85.9087 325.043 82.2565V82.2565ZM316.522 77.9956L311.652 78.6043V68.2565L316.522 67.6478C321.087 66.7348 322.913 68.8652 322.913 71.9087C322.913 75.2565 320.783 77.3869 316.522 77.9956Z" fill="white"/>
<path d="M276.652 64.3C264.783 65.5174 255.652 75.5609 255.956 87.7348C255.956 99.6043 264.478 106.909 276.652 105.083C288.522 103.865 297.348 93.8217 297.348 81.9522C297.348 69.4739 288.826 62.4739 276.652 64.3V64.3ZM276.652 96.2565C270.261 97.1695 265.696 92.6043 265.696 86.213C265.696 79.8217 270.261 74.0391 276.652 73.1261C283.043 72.213 287.609 76.4739 287.609 83.1695C287.913 89.5608 283.043 95.3435 276.652 96.2565Z" fill="white"/>
<path d="M243.783 69.7782L237.087 95.3435H236.783L230.696 71.6043L221.261 72.8217L214.87 98.3869L208.174 74.6478L197.826 76.1695L210.609 113.909L219.13 112.691L226.435 85.3L233.435 110.561L241.956 109.343L254.739 67.9521L243.783 69.7782Z" fill="white"/>
<path d="M386.826 49.4174L372.826 51.2435V90.8087L387.13 88.6782C400.217 86.8522 407.826 77.7217 407.826 65.8522C407.826 53.9826 399.609 47.5913 386.826 49.4174ZM386.217 80.7652L381.956 81.3739V58.2435L386.826 57.6348C393.217 56.7217 397.783 60.9826 397.783 67.6782C397.783 74.3739 392.913 79.8522 386.217 80.7652V80.7652Z" fill="white"/>
<path d="M487.565 58.5478C487.565 64.3304 484.522 67.3739 480.261 67.9826C475.695 68.5913 473.261 65.5478 473.261 60.6782V37.5478L463.826 38.7652V62.5043C463.826 73.4608 470.522 78.0261 480.565 76.5043C491.217 74.9826 497.304 68.2869 497.304 57.6348V33.8956L487.869 35.113L487.565 58.5478V58.5478Z" fill="white"/>
<path d="M519.522 30.8217L504 32.9521V72.5174L513.13 71.3V58.5174L518.609 57.9087C527.739 56.6913 533.826 51.5174 533.826 42.6913C533.826 34.4739 529.261 29.3 519.522 30.8217V30.8217ZM517.696 49.6913L513.435 50.3V39.9521L518 39.3435C521.956 38.4304 524.087 40.5608 524.087 43.6043C524.087 46.9521 521.956 49.0826 517.696 49.6913Z" fill="white"/>
<path d="M442.826 49.6913C446.478 49.0826 450.13 50.3 452.87 52.7348L458.956 44.8217C454.696 41.1696 448.609 39.6478 443.13 40.8652C429.739 42.6913 422.13 52.7348 422.13 64.3C422.13 77.0826 431.261 83.4739 443.13 81.6478C448.913 81.0391 454.696 78.6043 458.956 74.3435L453.478 67.3435C450.739 70.0826 447.391 71.9087 443.435 72.5174C436.13 73.4304 432.174 68.8652 432.174 62.7782C431.87 56.3869 436.739 50.9087 442.826 49.6913Z" fill="white"/>
<path d="M349.087 54.8652L339.348 56.0826V95.6478L367.348 91.6913V83.4739L349.087 85.9391V54.8652Z" fill="white"/>
<path d="M207.565 34.4739L201.478 35.3869L198.13 63.113L204.217 62.1695L207.565 34.4739Z" fill="white"/>
<path d="M220.652 60.0391C224.609 59.4304 228.261 57.6043 230.696 54.5609L227.043 50.3C225.826 52.1261 223.696 53.6478 221.261 53.9522C217.913 54.2565 216.087 52.4304 216.087 48.4739C216.087 43.6043 219.13 38.1261 223.696 37.5174C225.826 37.213 227.956 38.4304 228.869 40.2565L233.435 35.3869C231.304 32.3435 227.652 30.8217 224 31.7348C215.174 32.9522 209.696 41.1696 209.696 49.9956C209.696 57.9087 214.565 60.9522 220.652 60.0391V60.0391Z" fill="white"/>
<path d="M244.391 56.6913C248.348 56.0826 252 54.2565 254.435 51.213L250.783 46.9521C249.565 48.7782 247.435 50.3 245 50.6043C241.652 50.9087 239.826 49.0826 239.826 45.1261C239.826 40.2565 242.87 34.7782 247.435 34.1695C249.565 33.8652 251.696 35.0826 252.609 36.9087L257.478 32.0391C255.348 28.9956 251.696 27.4739 248.043 28.3869C239.217 29.6043 233.739 37.8217 233.739 46.6478C233.739 54.5608 238.304 57.6043 244.391 56.6913V56.6913Z" fill="white"/>
<path d="M331.435 28.113L342.696 42.9956L349.087 42.0826V14.6913L342.696 15.6043L343 32.3435L331.435 17.1261L325.043 18.0391V45.4304L331.435 44.5174V28.113Z" fill="white"/>
<path d="M320.783 40.2869L307.087 42.0826V36.9087L318.956 35.3869V29.9087L307.087 31.4304V26.2565L320.174 24.4304V18.6478L300.696 21.3869V48.7782L320.783 46.0391V40.2869Z" fill="white"/>
<path d="M273.304 37.2435L279.087 46.3739L283.348 45.7348L289.13 34.7782V49.9956L295.522 49.0826V22.0261L288.826 22.9087L281.522 38.4304L273.609 25.0695L266.913 25.9521V53.3435L273.304 52.4608V37.2435Z" fill="white"/>
<path d="M360.348 12.8956L354.261 13.7782L353.043 24.4304L357.609 23.8217L360.348 12.8956Z" fill="white"/>
<path d="M446.174 28.6913C453.174 27.7783 457.13 21.9956 457.13 13.1696C457.13 8.3 455.913 4.64783 453.478 2.51739C451.348 0.691304 448.609 0.0826085 446.174 0.691304C439.478 1.60435 435.217 7.6913 435.217 16.213C435.217 21.0826 436.435 24.7348 438.869 26.8652C441 28.6913 443.739 29.3 446.174 28.6913ZM446.174 6.47391C447.087 6.16956 448 6.47391 448.609 7.08261C449.826 8.3 450.435 10.4304 450.435 13.7783C450.435 19.2565 448.913 22.3 446.174 22.6043C445.261 22.9087 444.348 22.6043 443.739 21.9956C442.522 20.7783 441.609 18.6478 441.609 15.3C441.609 10.1261 443.13 7.08261 446.174 6.47391V6.47391Z" fill="white"/>
<path d="M382.869 28.9956C382.869 23.5174 378.304 22.9087 373.739 21.6913C370.391 21.0826 369.478 20.4739 369.478 18.9522C369.478 17.4304 370.696 16.5174 372.522 16.5174C374.652 16.213 376.783 16.8217 378.609 18.3435L382.261 12.5608C379.217 10.7348 375.869 10.1261 372.522 11.0391C366.739 11.9522 362.783 15.3 362.783 20.4739C362.783 25.9522 367.043 27.1695 371.304 28.0826C374.652 28.6913 375.869 28.9956 375.869 30.5174C375.869 31.7348 374.652 32.9522 372.217 33.2565C369.783 33.5608 367.043 32.9522 364.913 31.4304L362.174 37.213C365.217 39.0391 368.869 39.3435 372.217 38.7348C378 37.8217 382.869 35.0826 382.869 28.9956V28.9956Z" fill="white"/>
<path d="M433.087 24.1261L423.348 25.3435L427.609 20.4739C431.261 16.5174 432.174 12.8652 432.174 10.4304C432.174 5.56086 428.522 3.12608 422.739 3.73478C420.304 4.03912 418.174 4.95217 416.043 6.16956V12.8652C417.565 11.3435 419.696 10.4304 421.826 9.82173C424.261 9.51738 425.174 10.7348 425.478 12.2565C425.478 14.3869 424.261 16.213 422.13 18.6478L413.913 28.3869V32.6478L433.087 29.9087V24.1261V24.1261Z" fill="white"/>
<path d="M390.782 14.4174L398.087 13.4739V35.0826L404.782 34.1695V12.5609L412.087 11.6478V5.56085L390.782 8.60433V14.4174Z" fill="white"/>
<path d="M198.465 154.509L204.857 153.596L206.378 148.422L215.509 147.204L217.03 151.77L223.422 150.856L213.683 125.596L207.596 126.509L198.465 154.509ZM207.291 142.943L210.335 133.509L213.378 142.03L207.291 142.943V142.943ZM235.291 149.639C242.291 148.422 246.248 143.856 246.248 136.856V121.03L240.161 121.943V137.161C240.161 141.117 238.03 143.248 235.291 143.552C232.248 144.161 230.726 142.03 230.726 138.683V123.161L224.335 124.074V139.9C224.335 147.509 228.9 150.552 235.291 149.639V149.639ZM258.726 146.291C264.204 145.683 268.77 142.943 268.77 136.856C268.77 131.378 264.813 130.77 260.248 129.552C256.9 128.639 255.987 128.03 255.987 126.813C255.987 125.596 257.204 124.683 258.726 124.378C260.856 124.074 262.683 124.683 264.509 125.9L267.856 120.422C265.117 118.9 261.77 118.291 258.726 118.9C253.552 119.509 249.596 122.856 249.596 128.03C249.596 133.204 253.857 134.422 257.813 135.335C261.161 135.943 262.378 136.248 262.378 137.77C262.378 138.987 261.465 140.204 259.03 140.509C256.596 140.509 254.161 139.9 252.03 138.683L249.291 144.465C252.335 146.291 255.683 146.9 258.726 146.291ZM276.987 122.248V143.248L283.378 142.335V121.335L290.378 120.422V114.943L270.291 117.683V123.161L277.291 122.248H276.987V122.248ZM315.03 137.77C313.509 134.117 311.378 131.074 308.639 128.335C311.683 126.509 313.509 123.161 313.509 119.813C313.509 114.943 310.77 111.596 304.074 112.509L293.726 114.03V140.813L299.813 139.9V131.378L302.248 131.074C304.683 133.204 306.813 135.943 308.03 138.987L315.03 137.77V137.77ZM302.856 125.291L299.813 125.596V118.596L303.161 118.291C305.9 117.987 307.117 119.204 307.117 121.335C307.117 123.77 305.596 125.291 302.856 125.291ZM316.248 137.77L322.639 136.856L324.161 131.683L333.291 130.465L334.813 135.03L341.204 134.117L331.465 108.856L325.378 109.77L316.248 137.77V137.77ZM325.378 126.509L328.422 117.074L331.465 125.596L325.378 126.509V126.509ZM344.248 133.509L362.509 131.074V125.596L350.335 127.422V106.422L343.943 107.335L344.248 133.509V133.509ZM365.856 131.074L372.248 130.161V103.378L365.856 104.291V131.074V131.074ZM384.726 101.552L375.596 129.552L381.987 128.639L383.509 123.465L392.639 122.248L394.161 126.813L400.552 125.9L390.813 100.639L384.726 101.552V101.552ZM384.422 118.291L387.465 108.856L390.509 117.378L384.422 118.291V118.291ZM410.9 124.683L428.248 122.248V116.465L419.726 117.683L423.683 112.813C426.117 110.074 427.639 106.726 427.943 103.074C427.943 98.5086 424.596 96.0739 419.117 96.6826C415.77 96.9869 412.726 98.5086 410.291 100.639L413.03 105.204C414.552 103.683 416.378 102.77 418.204 102.465C420.639 102.161 421.552 103.378 421.552 104.9C421.552 106.726 420.335 108.552 418.509 110.987L410.596 120.422L410.9 124.683V124.683ZM441.03 120.726C447.726 119.813 451.378 114.03 451.378 105.813C451.378 97.5956 447.422 92.726 441.03 93.6391C434.335 94.5521 430.683 100.335 430.683 108.552C430.683 116.77 434.335 121.639 441.03 120.726ZM441.03 114.639C438.291 115.248 437.074 112.204 437.074 107.639C437.074 102.465 438.596 99.726 441.03 99.4217C443.77 98.813 444.987 101.856 444.987 106.422C444.987 111.9 443.465 114.335 441.03 114.639ZM453.509 118.596L470.856 116.161V110.378L462.335 111.596L466.291 106.726C468.726 103.987 470.248 100.639 470.552 96.9869C470.552 92.4217 467.204 89.9869 461.726 90.5956C458.378 90.9 455.335 92.4217 452.9 94.5521L455.639 99.1173C457.161 97.5956 458.987 96.6826 460.813 96.3782C463.248 96.0739 464.161 97.2913 464.161 98.813C464.161 100.639 462.943 102.465 461.117 104.9L453.204 114.335L453.509 118.596ZM473.596 115.856L490.943 113.422V107.639L482.422 108.856L486.378 103.987C488.813 101.248 490.335 97.9 490.639 94.2478C490.639 89.6826 487.291 87.2478 481.813 87.8565C478.465 88.1608 475.422 89.6826 472.987 91.813L475.726 96.3782C477.248 94.8565 479.074 93.9434 480.9 93.6391C483.335 93.3347 484.248 94.5521 484.248 96.0739C484.248 97.9 483.03 99.726 481.204 102.161L473.291 111.596L473.596 115.856Z" fill="#00B1E5"/>
</g>
<defs>
<clipPath id="clip0_906_3622">
<rect width="184.13" height="157.652" fill="white" transform="translate(0 18.7391)"/>
</clipPath>
<clipPath id="clip1_906_3622">
<rect width="336" height="157.074" fill="white" transform="translate(197.826 0.478241)"/>
</clipPath>
</defs>
</svg>
